<svg width="993" height="508" viewBox="0 0 993 508" fill="none" xmlns="http://www.w3.org/2000/svg">
<g opacity="0.85">
<mask id="mask0_51_136" style="mask-type:alpha" maskUnits="userSpaceOnUse" x="0" y="0" width="993" height="508">
<path d="M34.47 226.227C36.7563 230.008 41.5333 231.003 45.1397 228.451C48.7462 225.899 49.8164 220.765 47.53 216.984C45.2437 213.203 40.4667 212.207 36.8603 214.76C33.2538 217.312 32.1836 222.446 34.47 226.227ZM123.952 162.897C126.239 166.678 131.016 167.674 134.622 165.122C138.229 162.569 139.299 157.435 137.012 153.654C134.726 149.874 129.949 148.878 126.343 151.43C122.736 153.983 121.666 159.117 123.952 162.897ZM41.7762 222.889L131.259 159.559L129.706 156.992L40.2238 220.322L41.7762 222.889Z" fill="black"/>
<path d="M323.338 166.816C319.108 168.093 316.574 172.596 317.677 176.875C318.781 181.153 323.105 183.586 327.334 182.309C331.564 181.032 334.098 176.529 332.995 172.25C331.891 167.972 327.567 165.539 323.338 166.816ZM343.408 244.621C339.179 245.898 336.645 250.401 337.748 254.68C338.852 258.958 343.175 261.391 347.405 260.114C351.635 258.837 354.169 254.333 353.065 250.055C351.962 245.777 347.638 243.344 343.408 244.621ZM323.9 174.996L343.971 252.801L346.843 251.934L326.772 174.129L323.9 174.996Z" fill="black"/>
<path d="M249.276 427.699C253.665 428.211 257.578 425.062 258.016 420.666C258.455 416.269 255.253 412.29 250.864 411.778C246.476 411.265 242.563 414.414 242.124 418.811C241.686 423.207 244.888 427.186 249.276 427.699ZM261.821 301.944C266.209 302.457 270.122 299.308 270.561 294.912C270.999 290.515 267.797 286.536 263.409 286.023C259.02 285.511 255.107 288.66 254.669 293.056C254.23 297.453 257.432 301.432 261.821 301.944ZM251.56 419.912L264.104 294.158L261.125 293.81L248.58 419.564L251.56 419.912Z" fill="black"/>
<path d="M192.48 345.566C189.21 348.537 188.756 353.775 191.466 357.265C194.176 360.755 199.023 361.175 202.293 358.204C205.563 355.232 206.017 349.994 203.307 346.505C200.598 343.015 195.75 342.595 192.48 345.566ZM245.166 413.419C241.896 416.39 241.442 421.628 244.152 425.118C246.862 428.608 251.709 429.028 254.979 426.057C258.249 423.085 258.703 417.847 255.993 414.358C253.284 410.868 248.436 410.448 245.166 413.419ZM196.277 352.894L248.963 420.747L251.183 418.729L198.497 350.876L196.277 352.894Z" fill="black"/>
<path d="M151.131 267.722C150.259 272.054 153.039 276.386 157.339 277.399C161.64 278.412 165.833 275.722 166.705 271.391C167.577 267.059 164.797 262.727 160.497 261.714C156.196 260.701 152.003 263.391 151.131 267.722ZM254.83 292.149C253.959 296.481 256.738 300.813 261.039 301.826C265.339 302.84 269.532 300.149 270.404 295.818C271.276 291.487 268.496 287.154 264.196 286.141C259.895 285.128 255.702 287.818 254.83 292.149ZM158.622 271.027L262.321 295.454L262.913 292.513L159.214 268.086L158.622 271.027Z" fill="black"/>
<path d="M265.176 301.562C269.285 299.939 271.471 295.229 270.058 291.043C268.644 286.857 264.167 284.779 260.058 286.403C255.949 288.026 253.764 292.736 255.177 296.922C256.59 301.108 261.067 303.186 265.176 301.562ZM230.052 197.521C234.161 195.897 236.347 191.188 234.934 187.001C233.52 182.815 229.044 180.738 224.934 182.361C220.825 183.985 218.64 188.695 220.053 192.881C221.466 197.067 225.943 199.144 230.052 197.521ZM264.012 293.431L228.888 189.39L226.098 190.492L261.222 294.534L264.012 293.431Z" fill="black"/>
<path d="M191.404 357.196C194.074 360.716 198.917 361.192 202.221 358.259C205.525 355.326 206.04 350.094 203.37 346.574C200.7 343.054 195.857 342.578 192.552 345.511C189.248 348.444 188.734 353.675 191.404 357.196ZM256.634 299.294C259.304 302.815 264.147 303.291 267.451 300.357C270.756 297.424 271.27 292.193 268.6 288.673C265.93 285.152 261.087 284.676 257.782 287.609C254.478 290.542 253.964 295.774 256.634 299.294ZM198.293 353.08L263.523 295.179L261.71 292.788L196.48 350.69L198.293 353.08Z" fill="black"/>
<path d="M155.531 262.309C151.655 264.429 150.029 269.392 151.899 273.395C153.769 277.398 158.428 278.924 162.305 276.804C166.181 274.685 167.807 269.721 165.937 265.718C164.067 261.715 159.408 260.189 155.531 262.309ZM194 344.637C190.124 346.757 188.498 351.721 190.368 355.723C192.238 359.726 196.897 361.253 200.774 359.133C204.65 357.013 206.276 352.05 204.406 348.047C202.536 344.044 197.877 342.517 194 344.637ZM157.602 270.276L196.071 352.605L198.703 351.165L160.234 268.837L157.602 270.276Z" fill="black"/>
<path d="M89.463 314.913C88.2218 319.154 90.604 323.752 94.7838 325.184C98.9636 326.616 103.358 324.339 104.599 320.099C105.841 315.858 103.458 311.26 99.2787 309.828C95.0989 308.396 90.7043 310.673 89.463 314.913ZM189.817 349.292C188.576 353.532 190.958 358.131 195.138 359.563C199.318 360.994 203.712 358.718 204.954 354.477C206.195 350.237 203.813 345.639 199.633 344.207C195.453 342.775 191.058 345.052 189.817 349.292ZM96.6099 318.945L196.964 353.324L197.807 350.445L97.4526 316.066L96.6099 318.945Z" fill="black"/>
<path d="M130.76 442.466C134.108 445.348 138.945 444.8 141.563 441.241C144.181 437.681 143.589 432.459 140.24 429.577C136.892 426.695 132.055 427.243 129.437 430.802C126.819 434.362 127.411 439.584 130.76 442.466ZM192.645 358.328C195.994 361.211 200.83 360.662 203.448 357.103C206.066 353.544 205.474 348.322 202.125 345.439C198.777 342.557 193.94 343.105 191.322 346.665C188.704 350.224 189.296 355.446 192.645 358.328ZM136.637 437L198.522 352.862L196.248 350.905L134.363 435.043L136.637 437Z" fill="black"/>
<path d="M94.5614 309.897C90.4311 311.466 88.1886 316.144 89.5527 320.347C90.9167 324.549 95.3708 326.684 99.5011 325.115C103.631 323.546 105.874 318.867 104.51 314.665C103.146 310.462 98.6917 308.328 94.5614 309.897ZM133.03 428.413C128.9 429.982 126.658 434.661 128.022 438.864C129.386 443.066 133.84 445.201 137.97 443.632C142.1 442.063 144.343 437.384 142.979 433.182C141.615 428.979 137.161 426.844 133.03 428.413ZM95.629 318.039L134.098 436.555L136.903 435.49L98.4335 316.973L95.629 318.039Z" fill="black"/>
<path d="M44.1423 382.203C42.1558 386.15 43.6314 391.167 47.4382 393.409C51.245 395.652 55.9415 394.271 57.928 390.324C59.9145 386.378 58.4389 381.361 54.6321 379.118C50.8253 376.875 46.1289 378.257 44.1423 382.203ZM128.607 431.962C126.621 435.908 128.096 440.926 131.903 443.168C135.71 445.411 140.406 444.03 142.393 440.083C144.379 436.137 142.904 431.119 139.097 428.877C135.29 426.634 130.594 428.015 128.607 431.962ZM50.3607 387.604L134.825 437.362L136.174 434.683L51.7096 384.924L50.3607 387.604Z" fill="black"/>
<path d="M46.587 392.913C50.066 395.637 54.8777 394.868 57.3343 391.195C59.7909 387.523 58.9622 382.338 55.4833 379.614C52.0043 376.891 47.1926 377.66 44.736 381.332C42.2794 385.004 43.1081 390.189 46.587 392.913ZM92.5827 324.155C96.0616 326.879 100.873 326.11 103.33 322.437C105.787 318.765 104.958 313.58 101.479 310.856C98 308.133 93.1883 308.902 90.7316 312.574C88.275 316.247 89.1038 321.432 92.5827 324.155ZM52.2162 387.188L98.2119 318.431L95.8497 316.581L49.8541 385.339L52.2162 387.188Z" fill="black"/>
<path d="M153.697 275.618C156.809 278.755 161.669 278.584 164.552 275.236C167.436 271.889 167.251 266.632 164.139 263.495C161.027 260.358 156.167 260.529 153.284 263.877C150.4 267.225 150.585 272.481 153.697 275.618ZM222.272 196.004C225.384 199.141 230.244 198.97 233.127 195.622C236.011 192.274 235.826 187.018 232.714 183.881C229.603 180.744 224.743 180.915 221.859 184.263C218.976 187.611 219.161 192.867 222.272 196.004ZM159.974 270.622L228.55 191.007L226.437 188.877L157.862 268.492L159.974 270.622Z" fill="black"/>
<path d="M160.898 277.308C165.132 276.042 167.676 271.545 166.583 267.265C165.489 262.984 161.171 260.54 156.937 261.806C152.704 263.072 150.16 267.568 151.253 271.849C152.347 276.129 156.665 278.573 160.898 277.308ZM132.465 166.029C136.698 164.763 139.243 160.266 138.149 155.986C137.055 151.705 132.737 149.261 128.504 150.527C124.271 151.792 121.726 156.289 122.82 160.57C123.913 164.85 128.232 167.294 132.465 166.029ZM160.355 269.127L131.921 157.848L129.047 158.707L157.481 269.986L160.355 269.127Z" fill="black"/>
<path d="M90.7074 322.406C93.1464 326.09 97.9549 326.883 101.448 324.176C104.94 321.47 105.794 316.29 103.355 312.606C100.916 308.922 96.1076 308.129 92.615 310.835C89.1224 313.541 88.2683 318.722 90.7074 322.406ZM152.592 274.456C155.031 278.14 159.84 278.933 163.333 276.227C166.825 273.521 167.679 268.341 165.24 264.656C162.801 260.972 157.993 260.18 154.5 262.886C151.007 265.592 150.153 270.772 152.592 274.456ZM97.8593 318.757L159.744 270.807L158.088 268.306L96.2032 316.255L97.8593 318.757Z" fill="black"/>
<path d="M122.879 155.795C121.692 160.051 124.135 164.612 128.335 165.983C132.535 167.354 136.903 165.016 138.089 160.76C139.276 156.504 136.834 151.942 132.634 150.571C128.433 149.2 124.066 151.539 122.879 155.795ZM219.888 187.46C218.701 191.716 221.144 196.277 225.344 197.648C229.544 199.019 233.912 196.68 235.098 192.425C236.285 188.169 233.843 183.607 229.643 182.236C225.442 180.865 221.075 183.204 219.888 187.46ZM130.081 159.722L227.09 191.387L227.896 188.497L130.887 156.832L130.081 159.722Z" fill="black"/>
<path d="M95.3865 325.335C99.677 326.39 103.892 323.74 104.8 319.416C105.708 315.092 102.967 310.732 98.676 309.677C94.3855 308.622 90.171 311.272 89.2626 315.596C88.3542 319.92 91.096 324.28 95.3865 325.335ZM128.838 166.106C133.128 167.161 137.343 164.511 138.251 160.187C139.16 155.863 136.418 151.503 132.127 150.448C127.837 149.393 123.622 152.043 122.714 156.367C121.806 160.691 124.547 165.051 128.838 166.106ZM98.4879 317.864L131.939 158.635L129.026 157.919L95.5746 317.148L98.4879 317.864Z" fill="black"/>
<path d="M36.9642 214.698C33.317 217.192 32.1673 222.306 34.3963 226.121C36.6252 229.936 41.3887 231.007 45.0358 228.513C48.683 226.019 49.8327 220.905 47.6037 217.09C45.3748 213.275 40.6113 212.204 36.9642 214.698ZM92.9953 310.597C89.3481 313.091 88.1984 318.205 90.4273 322.02C92.6562 325.835 97.4197 326.906 101.067 324.412C104.714 321.918 105.864 316.804 103.635 312.989C101.406 309.174 96.6424 308.103 92.9953 310.597ZM39.7618 222.452L95.7929 318.351L98.2693 316.658L42.2382 220.759L39.7618 222.452Z" fill="black"/>
<path d="M502.092 120.026C498.046 118.252 493.509 120.167 491.959 124.304C490.408 128.442 492.432 133.234 496.478 135.009C500.524 136.783 505.061 134.868 506.612 130.731C508.162 126.593 506.139 121.801 502.092 120.026ZM451.915 253.923C447.869 252.148 443.332 254.064 441.782 258.201C440.231 262.338 442.255 267.131 446.301 268.906C450.347 270.68 454.884 268.765 456.434 264.627C457.985 260.49 455.962 255.698 451.915 253.923ZM497.911 126.915L447.734 260.812L450.482 262.017L500.659 128.12L497.911 126.915Z" fill="black"/>
<path d="M555.236 216.707C558.797 214.092 559.781 208.938 557.433 205.195C555.085 201.452 550.295 200.538 546.733 203.153C543.172 205.768 542.188 210.921 544.536 214.664C546.884 218.407 551.674 219.321 555.236 216.707ZM503.536 134.293C507.097 131.678 508.081 126.524 505.733 122.782C503.385 119.039 498.595 118.124 495.033 120.739C491.472 123.354 490.488 128.508 492.836 132.25C495.184 135.993 499.974 136.908 503.536 134.293ZM552.193 209.042L500.494 126.628L498.075 128.404L549.775 210.817L552.193 209.042Z" fill="black"/>
<path d="M576.675 305.898C577.937 301.663 575.577 297.052 571.406 295.597C567.234 294.142 562.829 296.395 561.567 300.63C560.306 304.864 562.665 309.476 566.837 310.931C571.009 312.385 575.413 310.132 576.675 305.898ZM456.661 264.048C457.922 259.813 455.563 255.202 451.391 253.747C447.219 252.292 442.814 254.545 441.553 258.78C440.291 263.014 442.65 267.626 446.822 269.081C450.994 270.535 455.399 268.282 456.661 264.048ZM569.549 301.826L449.535 259.976L448.678 262.851L568.693 304.701L569.549 301.826Z" fill="black"/>
<path d="M558.124 206.321C556.373 202.265 551.756 200.592 547.813 202.585C543.87 204.578 542.093 209.482 543.844 213.538C545.596 217.594 550.212 219.267 554.156 217.274C558.099 215.281 559.876 210.378 558.124 206.321ZM456.247 257.805C454.496 253.748 449.879 252.075 445.936 254.068C441.993 256.061 440.216 260.965 441.967 265.021C443.719 269.077 448.335 270.75 452.279 268.757C456.222 266.765 457.999 261.861 456.247 257.805ZM550.39 208.553L448.513 260.036L449.702 262.79L551.579 211.307L550.39 208.553Z" fill="black"/>
<path d="M570.647 311.117C574.918 309.983 577.696 305.548 576.853 301.211C576.011 296.874 571.865 294.277 567.595 295.411C563.325 296.544 560.546 300.979 561.389 305.316C562.232 309.653 566.377 312.25 570.647 311.117ZM552.51 217.784C556.78 216.65 559.559 212.215 558.716 207.878C557.873 203.541 553.728 200.944 549.458 202.077C545.187 203.211 542.409 207.646 543.251 211.983C544.094 216.32 548.239 218.917 552.51 217.784ZM570.571 302.879L552.434 209.546L549.534 210.315L567.671 303.648L570.571 302.879Z" fill="black"/>
<path d="M646.95 275.475C649.089 271.609 647.865 266.455 644.216 263.963C640.568 261.471 635.876 262.585 633.738 266.451C631.599 270.317 632.823 275.471 636.471 277.963C640.12 280.455 644.811 279.341 646.95 275.475ZM557.589 214.442C559.728 210.576 558.504 205.421 554.856 202.93C551.207 200.438 546.516 201.552 544.377 205.418C542.238 209.284 543.462 214.438 547.111 216.93C550.759 219.422 555.451 218.308 557.589 214.442ZM641.07 269.65L551.709 208.617L550.257 211.242L639.618 272.275L641.07 269.65Z" fill="black"/>
<path d="M636.691 135.796C634.207 132.142 629.485 131.523 626.143 134.413C622.802 137.303 622.106 142.609 624.59 146.263C627.074 149.917 631.796 150.536 635.138 147.646C638.48 144.755 639.175 139.45 636.691 135.796ZM557.033 204.696C554.55 201.042 549.827 200.423 546.485 203.314C543.144 206.204 542.448 211.509 544.932 215.163C547.416 218.817 552.138 219.437 555.48 216.546C558.822 213.656 559.517 208.35 557.033 204.696ZM629.797 139.789L550.139 208.689L551.826 211.17L631.484 142.27L629.797 139.789Z" fill="black"/>
<path d="M640.939 278.941C645.328 278.433 648.62 274.449 648.291 270.043C647.962 265.637 644.137 262.477 639.748 262.985C635.359 263.493 632.068 267.476 632.397 271.882C632.726 276.288 636.55 279.448 640.939 278.941ZM631.237 149.007C635.626 148.499 638.917 144.516 638.588 140.11C638.259 135.704 634.434 132.544 630.045 133.051C625.656 133.559 622.365 137.543 622.694 141.949C623.023 146.355 626.848 149.515 631.237 149.007ZM641.834 270.791L632.131 140.857L629.151 141.202L638.854 271.135L641.834 270.791Z" fill="black"/>
<path d="M768.371 303.607C772.378 301.745 774.117 296.987 772.255 292.981C770.393 288.974 765.636 287.235 761.629 289.096C757.622 290.958 755.883 295.716 757.745 299.723C759.607 303.729 764.364 305.468 768.371 303.607ZM722.371 201.607C726.378 199.745 728.117 194.987 726.255 190.981C724.393 186.974 719.636 185.235 715.629 187.096C711.622 188.958 709.883 193.716 711.745 197.723C713.607 201.729 718.364 203.468 722.371 201.607ZM766.367 295.735L720.367 193.735L717.633 194.968L763.633 296.968L766.367 295.735Z" fill="black"/>
<path d="M723.695 188.733C720.592 185.588 715.527 185.554 712.382 188.657C709.236 191.76 709.202 196.825 712.305 199.97C715.408 203.115 720.473 203.15 723.618 200.047C726.764 196.944 726.798 191.878 723.695 188.733ZM646.039 265.345C642.936 262.2 637.871 262.165 634.726 265.268C631.581 268.371 631.546 273.437 634.649 276.582C637.752 279.727 642.818 279.761 645.963 276.658C649.108 273.555 649.142 268.49 646.039 265.345ZM716.947 193.284L639.291 269.896L641.398 272.031L719.053 195.419L716.947 193.284Z" fill="black"/>
<path d="M575.566 298.524C573.367 294.692 568.698 293.708 565.139 296.325C561.579 298.943 560.477 304.171 562.676 308.003C564.875 311.835 569.544 312.82 573.103 310.202C576.663 307.585 577.765 302.356 575.566 298.524ZM490.471 361.099C488.272 357.267 483.603 356.282 480.044 358.9C476.484 361.517 475.382 366.746 477.581 370.578C479.78 374.41 484.449 375.394 488.008 372.777C491.568 370.159 492.67 364.931 490.471 361.099ZM568.374 301.963L483.279 364.537L484.773 367.139L569.868 304.565L568.374 301.963Z" fill="black"/>
<path d="M569.011 295.264C564.596 295.437 561.066 299.159 561.127 303.577C561.188 307.995 564.816 311.436 569.231 311.263C573.646 311.09 577.176 307.368 577.115 302.95C577.054 298.533 573.426 295.091 569.011 295.264ZM570.663 415.251C566.248 415.424 562.719 419.146 562.779 423.564C562.84 427.982 566.468 431.423 570.883 431.25C575.298 431.077 578.828 427.355 578.767 422.937C578.706 418.52 575.078 415.078 570.663 415.251ZM567.622 303.322L569.274 423.309L572.272 423.192L570.62 303.205L567.622 303.322Z" fill="black"/>
<path d="M647.63 267.659C646.187 263.483 641.755 261.577 637.731 263.401C633.707 265.226 631.615 270.091 633.058 274.267C634.501 278.443 638.932 280.349 642.956 278.524C646.98 276.699 649.072 271.835 647.63 267.659ZM576.406 299.959C574.964 295.783 570.532 293.877 566.508 295.702C562.484 297.527 560.392 302.391 561.835 306.567C563.278 310.743 567.709 312.649 571.733 310.824C575.757 309 577.849 304.135 576.406 299.959ZM639.854 269.545L568.631 301.845L569.61 304.681L640.834 272.381L639.854 269.545Z" fill="black"/>
<path d="M577.445 427.665C579.534 423.772 578.241 418.64 574.557 416.201C570.873 413.763 566.192 414.942 564.102 418.835C562.013 422.728 563.305 427.86 566.99 430.299C570.674 432.737 575.355 431.558 577.445 427.665ZM490.697 370.253C492.787 366.36 491.494 361.227 487.81 358.789C484.125 356.35 479.444 357.529 477.355 361.422C475.265 365.315 476.558 370.448 480.243 372.886C483.927 375.325 488.608 374.146 490.697 370.253ZM571.483 421.928L484.736 364.516L483.317 367.159L570.064 424.572L571.483 421.928Z" fill="black"/>
<path d="M643.668 263.686C639.811 261.53 635.197 263.041 633.361 267.059C631.525 271.078 633.163 276.084 637.019 278.24C640.876 280.395 645.491 278.885 647.327 274.866C649.163 270.848 647.525 265.842 643.668 263.686ZM574.097 415.974C570.24 413.818 565.626 415.328 563.79 419.347C561.954 423.366 563.592 428.371 567.449 430.527C571.305 432.683 575.92 431.173 577.756 427.154C579.592 423.135 577.954 418.13 574.097 415.974ZM639.034 270.231L569.463 422.518L572.082 423.982L641.653 271.695L639.034 270.231Z" fill="black"/>
<path d="M674.564 390.307C678.694 388.736 681.054 384.019 679.836 379.772C678.619 375.525 674.284 373.356 670.154 374.927C666.025 376.498 663.665 381.215 664.882 385.462C666.1 389.71 670.435 391.879 674.564 390.307ZM642.55 278.653C646.679 277.082 649.039 272.365 647.822 268.118C646.604 263.87 642.269 261.701 638.14 263.273C634.01 264.844 631.65 269.561 632.868 273.808C634.086 278.055 638.42 280.224 642.55 278.653ZM673.761 382.084L641.747 270.429L638.943 271.496L670.957 383.151L673.761 382.084Z" fill="black"/>
<path d="M227.002 197.178C231.409 197.495 235.201 194.177 235.472 189.767C235.742 185.357 232.389 181.525 227.982 181.208C223.576 180.892 219.784 184.21 219.513 188.62C219.242 193.03 222.595 196.862 227.002 197.178ZM234.088 81.7538C238.495 82.0704 242.287 78.7521 242.558 74.3422C242.829 69.9322 239.476 66.1005 235.069 65.7839C230.662 65.4672 226.87 68.7855 226.599 73.1955C226.328 77.6055 229.681 81.4372 234.088 81.7538ZM228.988 189.301L236.075 73.8763L233.082 73.6613L225.996 189.086L228.988 189.301Z" fill="black"/>
<path d="M409.79 132.916C410.007 137.328 413.758 140.701 418.169 140.447C422.58 140.194 425.981 136.412 425.764 131.999C425.548 127.586 421.796 124.213 417.385 124.467C412.974 124.72 409.574 128.503 409.79 132.916ZM491.589 128.22C491.805 132.633 495.556 136.005 499.967 135.752C504.378 135.499 507.779 131.716 507.562 127.303C507.346 122.89 503.595 119.518 499.184 119.771C494.773 120.024 491.372 123.807 491.589 128.22ZM417.851 133.955L499.649 129.26L499.502 126.263L417.704 130.959L417.851 133.955Z" fill="black"/>
<path d="M327.989 121.61C330.74 125.068 335.592 125.429 338.825 122.418C342.058 119.407 342.449 114.163 339.698 110.706C336.947 107.249 332.096 106.887 328.862 109.898C325.629 112.909 325.238 118.153 327.989 121.61ZM408.421 46.706C411.172 50.1633 416.024 50.525 419.257 47.5139C422.49 44.5028 422.881 39.2591 420.13 35.8018C417.379 32.3446 412.528 31.9829 409.295 34.994C406.061 38.0051 405.67 43.2488 408.421 46.706ZM334.778 117.332L415.21 42.4277L413.342 40.0802L332.91 114.984L334.778 117.332Z" fill="black"/>
<path d="M421.876 43.7561C423.073 39.503 420.641 34.9349 416.444 33.5529C412.248 32.171 407.875 34.4986 406.679 38.7517C405.482 43.0048 407.914 47.573 412.111 48.9549C416.307 50.3368 420.679 48.0092 421.876 43.7561ZM323.927 11.5021C325.124 7.24893 322.692 2.68082 318.495 1.2989C314.299 -0.0830182 309.927 2.24456 308.73 6.49768C307.533 10.7508 309.965 15.3189 314.162 16.7008C318.358 18.0828 322.73 15.7552 323.927 11.5021ZM414.684 39.81L316.735 7.55594L315.922 10.4438L413.871 42.6978L414.684 39.81Z" fill="black"/>
<path d="M418.084 140.451C422.498 140.253 425.939 136.513 425.769 132.098C425.6 127.683 421.884 124.265 417.471 124.463C413.057 124.661 409.616 128.401 409.785 132.816C409.955 137.231 413.67 140.649 418.084 140.451ZM414.585 49.2483C418.999 49.0501 422.44 45.3104 422.27 40.8953C422.101 36.4803 418.386 33.0619 413.972 33.26C409.558 33.4582 406.117 37.1979 406.287 41.613C406.456 46.028 410.171 49.4464 414.585 49.2483ZM419.276 132.39L415.777 41.1869L412.78 41.3214L416.279 132.524L419.276 132.39Z" fill="black"/>
<path d="M325.99 114.633C325.267 118.992 328.197 123.208 332.534 124.05C336.871 124.893 340.974 122.042 341.697 117.683C342.42 113.325 339.491 109.108 335.153 108.266C330.816 107.424 326.714 110.274 325.99 114.633ZM409.921 130.932C409.198 135.29 412.128 139.507 416.465 140.349C420.802 141.191 424.905 138.341 425.628 133.982C426.351 129.623 423.421 125.407 419.084 124.565C414.747 123.722 410.645 126.573 409.921 130.932ZM333.598 117.638L417.529 133.937L418.02 130.977L334.089 114.678L333.598 117.638Z" fill="black"/>
<path d="M318.056 176.972C319.658 181.09 324.217 182.943 328.237 181.112C332.258 179.28 334.219 174.458 332.616 170.34C331.014 166.223 326.455 164.37 322.434 166.201C318.414 168.032 316.453 172.855 318.056 176.972ZM410.494 134.868C412.097 138.985 416.655 140.838 420.676 139.007C424.697 137.176 426.658 132.353 425.055 128.236C423.453 124.118 418.894 122.265 414.873 124.096C410.852 125.928 408.892 130.75 410.494 134.868ZM325.88 175.054L418.319 132.95L417.231 130.154L324.792 172.258L325.88 175.054Z" fill="black"/>
<path d="M450.994 269.188C455.244 267.979 457.844 263.519 456.8 259.226C455.757 254.933 451.467 252.432 447.217 253.64C442.967 254.849 440.367 259.309 441.41 263.602C442.454 267.895 446.744 270.396 450.994 269.188ZM419.663 140.231C423.913 139.023 426.512 134.563 425.469 130.269C424.426 125.976 420.135 123.475 415.885 124.684C411.636 125.892 409.036 130.352 410.079 134.645C411.122 138.939 415.413 141.44 419.663 140.231ZM450.548 261.004L419.217 132.047L416.331 132.868L447.663 261.824L450.548 261.004Z" fill="black"/>
<path d="M318.787 169.967C316.515 173.757 317.605 178.886 321.222 181.424C324.839 183.962 329.612 182.947 331.884 179.158C334.157 175.368 333.067 170.239 329.45 167.701C325.833 165.163 321.059 166.178 318.787 169.967ZM442.557 256.819C440.285 260.609 441.375 265.738 444.992 268.276C448.609 270.814 453.383 269.799 455.655 266.01C457.927 262.22 456.837 257.091 453.22 254.553C449.603 252.015 444.83 253.03 442.557 256.819ZM324.565 175.849L448.335 262.701L449.877 260.128L326.107 173.276L324.565 175.849Z" fill="black"/>
<path d="M258.875 300.149C262.631 302.475 267.352 301.196 269.418 297.291C271.485 293.385 270.115 288.334 266.359 286.007C262.603 283.681 257.883 284.961 255.816 288.866C253.749 292.771 255.119 297.823 258.875 300.149ZM321.596 181.632C325.353 183.959 330.073 182.679 332.14 178.774C334.206 174.869 332.837 169.817 329.081 167.491C325.324 165.164 320.604 166.444 318.537 170.349C316.471 174.254 317.84 179.306 321.596 181.632ZM263.892 293.868L326.614 175.351L324.063 173.772L261.342 292.288L263.892 293.868Z" fill="black"/>
<path d="M335.134 124.053C339.474 123.223 342.414 119.015 341.701 114.655C340.988 110.295 336.893 107.433 332.553 108.263C328.214 109.093 325.273 113.301 325.986 117.661C326.699 122.022 330.795 124.884 335.134 124.053ZM317.618 16.8951C321.957 16.0649 324.897 11.8571 324.184 7.49668C323.472 3.13627 319.376 0.274482 315.036 1.10469C310.697 1.93489 307.757 6.14271 308.469 10.5031C309.182 14.8635 313.278 17.7253 317.618 16.8951ZM335.317 115.876L317.8 8.71804L314.854 9.28175L332.37 116.44L335.317 115.876Z" fill="black"/>
<path d="M341.201 119.3C342.715 115.149 340.649 110.378 336.586 108.643C332.523 106.908 328.001 108.866 326.486 113.016C324.972 117.167 327.038 121.938 331.102 123.674C335.165 125.409 339.687 123.451 341.201 119.3ZM241.934 76.9101C243.449 72.7595 241.382 67.9882 237.319 66.253C233.256 64.5179 228.734 66.476 227.22 70.6266C225.705 74.7772 227.771 79.5486 231.835 81.2837C235.898 83.0189 240.42 81.0607 241.934 76.9101ZM334.358 114.749L235.091 72.3592L234.063 75.1775L333.33 117.567L334.358 114.749Z" fill="black"/>
<path d="M324.183 182.479C328.538 183.221 332.585 180.279 333.222 175.907C333.859 171.535 330.845 167.389 326.489 166.646C322.134 165.904 318.087 168.846 317.45 173.218C316.813 177.59 319.827 181.736 324.183 182.479ZM332.691 124.076C337.046 124.818 341.093 121.876 341.73 117.504C342.367 113.132 339.353 108.985 334.997 108.243C330.642 107.5 326.595 110.443 325.958 114.815C325.321 119.187 328.335 123.333 332.691 124.076ZM326.815 174.815L335.323 116.411L332.365 115.907L323.857 174.31L326.815 174.815Z" fill="black"/>
<path d="M228.308 78.7355C230.784 82.3943 235.6 83.1361 239.063 80.3923C242.526 77.6486 243.325 72.4584 240.849 68.7996C238.372 65.1409 233.557 64.3991 230.093 67.1428C226.63 69.8866 225.831 75.0768 228.308 78.7355ZM310.058 13.9671C312.534 17.6258 317.35 18.3676 320.813 15.6239C324.276 12.8801 325.075 7.6899 322.599 4.03116C320.122 0.372414 315.306 -0.369351 311.843 2.37438C308.38 5.11812 307.581 10.3083 310.058 13.9671ZM235.419 75.0097L317.169 10.2413L315.487 7.75699L233.737 72.5254L235.419 75.0097Z" fill="black"/>
<path d="M330.689 180.508C333.73 177.303 333.799 172.043 330.843 168.759C327.886 165.476 323.024 165.413 319.983 168.617C316.941 171.822 316.873 177.082 319.829 180.366C322.786 183.649 327.648 183.712 330.689 180.508ZM239.93 79.7145C242.972 76.5096 243.04 71.2497 240.084 67.9664C237.127 64.6831 232.265 64.6195 229.224 67.8245C226.183 71.0294 226.114 76.2893 229.07 79.5726C232.027 82.856 236.889 82.9195 239.93 79.7145ZM326.368 173.474L235.61 72.6814L233.545 74.8576L324.303 175.651L326.368 173.474Z" fill="black"/>
<path d="M219.58 190.376C220.14 194.759 224.136 197.782 228.506 197.129C232.876 196.475 235.964 192.393 235.404 188.01C234.844 183.628 230.848 180.604 226.478 181.258C222.109 181.911 219.02 185.994 219.58 190.376ZM317.425 175.745C317.985 180.128 321.982 183.151 326.351 182.497C330.721 181.844 333.809 177.761 333.25 173.379C332.69 168.996 328.693 165.973 324.324 166.626C319.954 167.28 316.865 171.362 317.425 175.745ZM227.682 190.681L325.528 176.05L325.147 173.074L227.302 187.705L227.682 190.681Z" fill="black"/>
<path d="M255.438 296.608C257.15 300.682 261.751 302.403 265.716 300.454C269.681 298.504 271.508 293.621 269.796 289.548C268.085 285.475 263.483 283.753 259.518 285.703C255.553 287.652 253.727 292.535 255.438 296.608ZM338.23 255.896C339.942 259.97 344.543 261.691 348.508 259.742C352.473 257.792 354.3 252.909 352.588 248.836C350.877 244.763 346.275 243.041 342.31 244.991C338.346 246.941 336.519 251.823 338.23 255.896ZM263.198 294.461L345.99 253.749L344.828 250.983L262.036 291.695L263.198 294.461Z" fill="black"/>
<path d="M470.893 499.169C475.282 499.682 479.195 496.533 479.634 492.137C480.072 487.74 476.87 483.761 472.482 483.248C468.093 482.736 464.18 485.885 463.741 490.281C463.303 494.678 466.505 498.657 470.893 499.169ZM483.438 373.415C487.826 373.927 491.739 370.779 492.178 366.382C492.616 361.986 489.414 358.006 485.026 357.494C480.637 356.982 476.724 360.131 476.286 364.527C475.847 368.923 479.049 372.903 483.438 373.415ZM473.177 491.383L485.722 365.629L482.742 365.281L470.198 491.035L473.177 491.383Z" fill="black"/>
<path d="M319.857 499.804C320.07 504.217 323.819 507.592 328.23 507.342C332.641 507.093 336.044 503.313 335.831 498.899C335.618 494.486 331.868 491.111 327.457 491.361C323.046 491.611 319.643 495.391 319.857 499.804ZM463.697 491.661C463.911 496.074 467.66 499.45 472.071 499.2C476.482 498.95 479.885 495.17 479.672 490.757C479.458 486.344 475.709 482.969 471.298 483.219C466.887 483.468 463.484 487.248 463.697 491.661ZM327.916 500.85L471.757 492.707L471.612 489.711L327.771 497.853L327.916 500.85Z" fill="black"/>
<path d="M414.094 417.037C410.824 420.008 410.37 425.246 413.079 428.736C415.789 432.225 420.637 432.646 423.906 429.674C427.176 426.703 427.63 421.465 424.921 417.975C422.211 414.485 417.363 414.065 414.094 417.037ZM466.78 484.89C463.51 487.861 463.056 493.099 465.765 496.589C468.475 500.079 473.322 500.499 476.592 497.527C479.862 494.556 480.316 489.318 477.607 485.828C474.897 482.339 470.049 481.918 466.78 484.89ZM417.89 424.364L470.576 492.217L472.796 490.2L420.11 422.347L417.89 424.364Z" fill="black"/>
<path d="M372.744 339.193C371.873 343.525 374.652 347.857 378.953 348.87C383.253 349.883 387.446 347.193 388.318 342.862C389.19 338.53 386.41 334.198 382.11 333.185C377.809 332.172 373.616 334.862 372.744 339.193ZM476.444 363.62C475.572 367.952 478.351 372.284 482.652 373.297C486.953 374.31 491.146 371.62 492.017 367.289C492.889 362.957 490.11 358.625 485.809 357.612C481.508 356.599 477.315 359.289 476.444 363.62ZM380.235 342.498L483.935 366.925L484.527 363.984L380.827 339.557L380.235 342.498Z" fill="black"/>
<path d="M486.789 373.035C490.899 371.411 493.084 366.702 491.671 362.515C490.258 358.329 485.781 356.252 481.672 357.875C477.562 359.499 475.377 364.209 476.79 368.395C478.203 372.581 482.68 374.658 486.789 373.035ZM451.665 268.993C455.775 267.37 457.96 262.66 456.547 258.474C455.134 254.288 450.657 252.21 446.548 253.834C442.438 255.457 440.253 260.167 441.666 264.353C443.079 268.539 447.556 270.617 451.665 268.993ZM485.626 364.904L450.502 260.862L447.711 261.965L482.835 366.006L485.626 364.904Z" fill="black"/>
<path d="M413.017 428.666C415.687 432.187 420.53 432.663 423.834 429.73C427.139 426.796 427.653 421.565 424.983 418.045C422.313 414.524 417.47 414.048 414.166 416.981C410.861 419.914 410.347 425.146 413.017 428.666ZM478.247 370.765C480.917 374.285 485.76 374.761 489.065 371.828C492.369 368.895 492.883 363.664 490.213 360.143C487.543 356.623 482.7 356.147 479.396 359.08C476.091 362.013 475.577 367.245 478.247 370.765ZM419.906 424.551L485.137 366.649L483.324 364.259L418.094 422.16L419.906 424.551Z" fill="black"/>
<path d="M377.145 333.78C373.268 335.899 371.642 340.863 373.512 344.866C375.383 348.869 380.041 350.395 383.918 348.275C387.794 346.155 389.421 341.192 387.55 337.189C385.68 333.186 381.021 331.66 377.145 333.78ZM415.614 416.108C411.737 418.228 410.111 423.191 411.981 427.194C413.852 431.197 418.51 432.723 422.387 430.604C426.263 428.484 427.89 423.52 426.019 419.517C424.149 415.515 419.49 413.988 415.614 416.108ZM379.215 341.747L417.684 424.075L420.316 422.636L381.847 340.308L379.215 341.747Z" fill="black"/>
<path d="M311.08 386.384C309.839 390.624 312.221 395.222 316.401 396.654C320.581 398.086 324.975 395.81 326.217 391.569C327.458 387.329 325.076 382.731 320.896 381.299C316.716 379.867 312.321 382.144 311.08 386.384ZM411.434 420.763C410.193 425.003 412.575 429.601 416.755 431.033C420.935 432.465 425.33 430.189 426.571 425.948C427.812 421.708 425.43 417.11 421.25 415.678C417.07 414.246 412.676 416.522 411.434 420.763ZM318.227 390.416L418.581 424.795L419.424 421.916L319.07 387.537L318.227 390.416Z" fill="black"/>
<path d="M321.699 504.474C324.263 508.073 329.092 508.697 332.485 505.867C335.879 503.038 336.552 497.827 333.988 494.229C331.425 490.63 326.596 490.007 323.202 492.836C319.809 495.665 319.136 500.876 321.699 504.474ZM412.854 428.479C415.418 432.077 420.247 432.701 423.64 429.872C427.034 427.043 427.707 421.832 425.143 418.233C422.58 414.635 417.751 414.011 414.357 416.84C410.964 419.67 410.291 424.88 412.854 428.479ZM328.714 500.573L419.869 424.578L418.128 422.134L326.973 498.13L328.714 500.573Z" fill="black"/>
<path d="M317.984 381.004C313.587 381.433 310.319 385.35 310.686 389.753C311.053 394.156 314.915 397.378 319.313 396.949C323.71 396.52 326.978 392.603 326.611 388.2C326.244 383.797 322.381 380.575 317.984 381.004ZM327.183 491.379C322.786 491.807 319.518 495.725 319.885 500.128C320.252 504.531 324.115 507.752 328.512 507.323C332.909 506.894 336.177 502.977 335.81 498.574C335.443 494.171 331.581 490.95 327.183 491.379ZM317.156 389.122L326.355 499.497L329.34 499.205L320.141 388.831L317.156 389.122Z" fill="black"/>
<path d="M244.48 414.016C241.571 417.341 241.716 422.599 244.803 425.76C247.891 428.92 252.752 428.787 255.661 425.461C258.569 422.135 258.425 416.877 255.337 413.717C252.25 410.556 247.389 410.69 244.48 414.016ZM322.254 493.63C319.346 496.956 319.49 502.214 322.578 505.374C325.665 508.535 330.526 508.401 333.435 505.075C336.344 501.75 336.199 496.491 333.112 493.331C330.024 490.17 325.163 490.304 322.254 493.63ZM249.083 420.867L326.857 500.482L328.832 498.224L251.058 418.609L249.083 420.867Z" fill="black"/>
<path d="M242.771 423.012C244.352 427.138 248.902 429.017 252.933 427.208C256.965 425.4 258.951 420.59 257.37 416.464C255.788 412.338 251.238 410.46 247.207 412.268C243.176 414.076 241.19 418.887 242.771 423.012ZM311.346 392.252C312.928 396.378 317.477 398.257 321.509 396.448C325.54 394.64 327.526 389.83 325.945 385.704C324.364 381.578 319.814 379.7 315.783 381.508C311.751 383.316 309.765 388.127 311.346 392.252ZM250.607 421.139L319.182 390.379L318.109 387.578L249.533 418.338L250.607 421.139Z" fill="black"/>
<path d="M375.31 347.089C378.422 350.226 383.282 350.054 386.165 346.707C389.049 343.359 388.864 338.103 385.752 334.966C382.641 331.829 377.781 332 374.897 335.348C372.014 338.695 372.199 343.952 375.31 347.089ZM443.886 267.475C446.997 270.611 451.857 270.44 454.741 267.093C457.624 263.745 457.439 258.488 454.328 255.352C451.216 252.215 446.356 252.386 443.472 255.734C440.589 259.081 440.774 264.338 443.886 267.475ZM381.588 342.092L450.163 262.478L448.05 260.348L379.475 339.962L381.588 342.092Z" fill="black"/>
<path d="M383.478 348.465C387.486 346.607 389.416 341.77 387.789 337.662C386.162 333.555 381.593 331.731 377.585 333.59C373.576 335.448 371.646 340.285 373.273 344.392C374.901 348.5 379.469 350.323 383.478 348.465ZM348.354 259.804C352.362 257.945 354.292 253.109 352.665 249.001C351.038 244.893 346.469 243.07 342.461 244.928C338.452 246.787 336.522 251.623 338.149 255.731C339.777 259.839 344.345 261.662 348.354 259.804ZM381.892 340.396L346.768 251.735L344.046 252.997L379.17 341.658L381.892 340.396Z" fill="black"/>
<path d="M312.325 393.876C314.764 397.56 319.572 398.353 323.065 395.647C326.557 392.941 327.411 387.761 324.972 384.077C322.533 380.393 317.725 379.6 314.232 382.306C310.74 385.012 309.886 390.192 312.325 393.876ZM374.21 345.927C376.649 349.611 381.457 350.404 384.95 347.698C388.442 344.992 389.296 339.811 386.857 336.127C384.418 332.443 379.61 331.65 376.117 334.356C372.625 337.063 371.771 342.243 374.21 345.927ZM319.476 390.227L381.362 342.278L379.705 339.776L317.82 387.726L319.476 390.227Z" fill="black"/>
<path d="M337.437 251.672C337.108 256.078 340.41 259.961 344.812 260.345C349.213 260.729 353.048 257.469 353.376 253.062C353.704 248.656 350.403 244.773 346.001 244.389C341.599 244.005 337.765 247.266 337.437 251.672ZM441.136 260.719C440.807 265.125 444.109 269.008 448.511 269.392C452.912 269.776 456.747 266.516 457.075 262.11C457.404 257.704 454.102 253.82 449.7 253.436C445.299 253.052 441.464 256.313 441.136 260.719ZM345.295 253.863L448.994 262.91L449.217 259.918L345.518 250.871L345.295 253.863Z" fill="black"/>
<path d="M317.111 396.827C321.417 397.815 325.597 395.1 326.446 390.764C327.296 386.428 324.493 382.113 320.186 381.126C315.88 380.138 311.7 382.853 310.851 387.189C310.001 391.525 312.804 395.84 317.111 396.827ZM343.872 260.216C348.178 261.204 352.358 258.489 353.207 254.153C354.057 249.818 351.254 245.502 346.947 244.515C342.641 243.528 338.461 246.242 337.612 250.578C336.762 254.914 339.565 259.229 343.872 260.216ZM320.111 389.312L346.872 252.701L343.947 252.03L317.186 388.641L320.111 389.312Z" fill="black"/>
<path d="M258.581 286.171C254.934 288.665 253.785 293.779 256.013 297.594C258.242 301.409 263.006 302.479 266.653 299.986C270.3 297.492 271.45 292.377 269.221 288.563C266.992 284.748 262.229 283.677 258.581 286.171ZM314.612 382.07C310.965 384.564 309.816 389.678 312.044 393.493C314.273 397.308 319.037 398.378 322.684 395.885C326.331 393.391 327.481 388.276 325.252 384.462C323.023 380.647 318.26 379.576 314.612 382.07ZM261.379 293.925L317.41 389.824L319.886 388.13L263.855 292.231L261.379 293.925Z" fill="black"/>
<path d="M821.14 245.959C823.133 242.016 821.551 237.204 817.608 235.211C813.664 233.219 808.852 234.8 806.86 238.744C804.867 242.687 806.449 247.499 810.392 249.492C814.336 251.484 819.148 249.903 821.14 245.959ZM726.14 197.959C728.133 194.016 726.551 189.204 722.608 187.211C718.664 185.219 713.852 186.8 711.86 190.744C709.867 194.687 711.449 199.499 715.392 201.492C719.336 203.484 724.148 201.903 726.14 197.959ZM814.676 241.013L719.676 193.013L718.324 195.69L813.324 243.69L814.676 241.013Z" fill="black"/>
<path d="M104.981 316.807C104.681 312.399 100.864 309.07 96.4558 309.37C92.0478 309.671 88.718 313.488 89.0185 317.896C89.3191 322.304 93.1361 325.634 97.5442 325.333C101.952 325.032 105.282 321.215 104.981 316.807ZM16.9815 322.807C16.681 318.399 12.8639 315.07 8.45586 315.37C4.04782 315.671 0.718036 319.488 1.01858 323.896C1.31913 328.304 5.1362 331.634 9.54424 331.333C13.9523 331.032 17.2821 327.215 16.9815 322.807ZM96.898 315.855L8.89802 321.855L9.10209 324.848L97.102 318.848L96.898 315.855Z" fill="black"/>
<path d="M6.58372 330.978C10.7956 332.312 15.2919 329.98 16.6264 325.768C17.9608 321.556 15.6282 317.06 11.4163 315.725C7.20435 314.391 2.7081 316.723 1.37363 320.935C0.0391508 325.147 2.37179 329.643 6.58372 330.978ZM38.5838 229.978C42.7957 231.312 47.2919 228.98 48.6264 224.768C49.9609 220.556 47.6283 216.06 43.4163 214.725C39.2044 213.391 34.7082 215.723 33.3737 219.935C32.0392 224.147 34.3718 228.643 38.5838 229.978ZM10.4299 323.805L42.43 222.805L39.5701 221.898L7.57005 322.899L10.4299 323.805Z" fill="black"/>
<path d="M993 281.352L978 272.691L978 290.012L993 281.352ZM865 281.352C865 276.933 861.418 273.352 857 273.352C852.582 273.352 849 276.933 849 281.352C849 285.77 852.582 289.352 857 289.352C861.418 289.352 865 285.77 865 281.352ZM979.5 279.852L857 279.852L857 282.852L979.5 282.852L979.5 279.852Z" fill="black"/>
<path d="M862.857 287.8C865.867 284.565 865.684 279.503 862.449 276.494C859.214 273.485 854.152 273.668 851.143 276.903C848.133 280.138 848.316 285.2 851.551 288.209C854.786 291.218 859.848 291.035 862.857 287.8ZM819.857 247.8C822.867 244.565 822.684 239.503 819.449 236.494C816.214 233.485 811.152 233.668 808.143 236.903C805.133 240.138 805.316 245.2 808.551 248.209C811.786 251.218 816.848 251.035 819.857 247.8ZM858.022 281.253L815.022 241.253L812.978 243.45L855.978 283.45L858.022 281.253Z" fill="black"/>
<path d="M819.486 236.529C816.271 233.499 811.208 233.65 808.178 236.865C805.148 240.081 805.298 245.144 808.514 248.174C811.729 251.204 816.792 251.054 819.822 247.838C822.852 244.622 822.702 239.559 819.486 236.529ZM770.486 288.529C767.271 285.499 762.208 285.65 759.178 288.865C756.148 292.081 756.298 297.144 759.514 300.174C762.729 303.204 767.792 303.054 770.822 299.838C773.852 296.622 773.702 291.559 770.486 288.529ZM812.908 241.323L763.908 293.323L766.092 295.38L815.092 243.38L812.908 241.323Z" fill="black"/>
<path d="M861.089 275.475C857.291 273.217 852.382 274.465 850.124 278.263C847.866 282.061 849.114 286.97 852.911 289.228C856.709 291.486 861.618 290.238 863.876 286.44C866.134 282.642 864.886 277.733 861.089 275.475ZM817.089 349.475C813.291 347.217 808.382 348.465 806.124 352.263C803.866 356.061 805.114 360.97 808.911 363.228C812.709 365.486 817.618 364.238 819.876 360.44C822.134 356.642 820.886 351.733 817.089 349.475ZM855.711 281.585L811.711 355.585L814.289 357.118L858.289 283.118L855.711 281.585Z" fill="black"/>
<path d="M864.896 280.064C864.185 275.704 860.073 272.745 855.713 273.456C851.352 274.167 848.393 278.278 849.104 282.639C849.815 287 853.927 289.958 858.287 289.247C862.648 288.536 865.607 284.425 864.896 280.064ZM772.896 295.064C772.185 290.704 768.073 287.745 763.713 288.456C759.352 289.167 756.393 293.278 757.104 297.639C757.815 302 761.927 304.958 766.287 304.247C770.648 303.536 773.607 299.425 772.896 295.064ZM856.759 279.871L764.759 294.871L765.241 297.832L857.241 282.832L856.759 279.871Z" fill="black"/>
<path d="M819.01 363.589C822.455 360.822 823.004 355.786 820.237 352.342C817.47 348.897 812.435 348.348 808.99 351.115C805.545 353.882 804.996 358.917 807.763 362.362C810.53 365.806 815.565 366.355 819.01 363.589ZM770.01 302.589C773.455 299.822 774.004 294.786 771.237 291.342C768.47 287.897 763.435 287.348 759.99 290.115C756.545 292.882 755.996 297.917 758.763 301.362C761.53 304.806 766.565 305.355 770.01 302.589ZM815.169 356.412L766.169 295.412L763.831 297.291L812.831 358.291L815.169 356.412Z" fill="black"/>
<path d="M772.82 298.041C773.752 293.722 771.008 289.465 766.689 288.532C762.37 287.599 758.113 290.344 757.18 294.663C756.248 298.981 758.992 303.238 763.311 304.171C767.63 305.104 771.887 302.359 772.82 298.041ZM647.82 271.041C648.753 266.722 646.008 262.465 641.689 261.532C637.37 260.599 633.113 263.344 632.18 267.662C631.248 271.981 633.992 276.238 638.311 277.171C642.63 278.104 646.887 275.359 647.82 271.041ZM765.317 294.885L640.317 267.885L639.683 270.818L764.683 297.818L765.317 294.885Z" fill="black"/>
<path d="M770.874 290.92C767.874 287.676 762.812 287.478 759.569 290.478C756.325 293.478 756.127 298.539 759.126 301.783C762.126 305.027 767.188 305.225 770.431 302.225C773.675 299.225 773.873 294.164 770.874 290.92ZM677.874 376.92C674.874 373.676 669.812 373.478 666.569 376.478C663.325 379.478 663.127 384.539 666.126 387.783C669.126 391.027 674.188 391.225 677.432 388.225C680.675 385.225 680.873 380.164 677.874 376.92ZM763.982 295.25L670.982 381.25L673.018 383.453L766.018 297.453L763.982 295.25Z" fill="black"/>
</mask>
<g mask="url(#mask0_51_136)">
<rect x="-15" y="-21" width="1067" height="584" fill="url(#paint0_linear_51_136)"/>
</g>
</g>
<defs>
<linearGradient id="paint0_linear_51_136" x1="-15" y1="271.303" x2="1038.29" y2="271.303" gradientUnits="userSpaceOnUse">
<stop offset="0.0864582" stop-color="#65D13C"/>
<stop offset="1" stop-color="#E9FCE1"/>
</linearGradient>
</defs>
</svg>
