<svg width="95" height="95" viewBox="0 0 95 95" fill="none" xmlns="http://www.w3.org/2000/svg">
<g id="Download_circle_light">
<path id="Ellipse 47" d="M20.7365 58.6291C22.3151 64.5208 25.7938 69.727 30.6329 73.4402C35.472 77.1534 41.4011 79.166 47.5006 79.166C53.6002 79.166 59.5293 77.1534 64.3684 73.4402C69.2075 69.727 72.6862 64.5208 74.2648 58.6291" stroke="#0B1B23" stroke-width="3"/>
<path id="Vector 9" d="M47.5007 15.834L46.5636 14.6627L47.5007 13.913L48.4377 14.6627L47.5007 15.834ZM49.0007 51.459C49.0007 52.2874 48.3291 52.959 47.5007 52.959C46.6722 52.959 46.0007 52.2874 46.0007 51.459L49.0007 51.459ZM26.7719 30.496L46.5636 14.6627L48.4377 17.0053L28.646 32.8386L26.7719 30.496ZM48.4377 14.6627L68.2294 30.496L66.3553 32.8386L46.5636 17.0053L48.4377 14.6627ZM49.0007 15.834L49.0007 51.459L46.0007 51.459L46.0007 15.834L49.0007 15.834Z" fill="#0B1B23"/>
</g>
</svg>
