<svg width="83" height="50" viewBox="0 0 83 50" fill="none" xmlns="http://www.w3.org/2000/svg">
<g id="logo_ver_1">
<path id="Union" fill-rule="evenodd" clip-rule="evenodd" d="M21.9219 0C23.5787 0 24.9219 1.34315 24.9219 3V46.8474C24.9219 48.5043 23.5787 49.8474 21.9219 49.8474C20.265 49.8474 18.9219 48.5043 18.9219 46.8474V3C18.9219 1.34315 20.265 0 21.9219 0ZM46.4764 17.539C48.1333 17.539 49.4764 18.8821 49.4764 20.539V34.0487V46.8474C49.4764 48.5043 48.1333 49.8474 46.4764 49.8474C44.8196 49.8474 43.4764 48.5043 43.4764 46.8474V34.0487V20.539C43.4764 18.8821 44.8196 17.539 46.4764 17.539ZM58.7537 3.50778C60.4106 3.50778 61.7537 4.85092 61.7537 6.50778V46.8474C61.7537 48.5043 60.4106 49.8474 58.7537 49.8474C57.0968 49.8474 55.7537 48.5043 55.7537 46.8474V6.50778C55.7537 4.85092 57.0968 3.50778 58.7537 3.50778ZM34.1991 8.76948C35.856 8.76948 37.1991 10.1126 37.1991 11.7695V46.8474C37.1991 48.5043 35.856 49.8474 34.1991 49.8474C32.5423 49.8474 31.1991 48.5043 31.1991 46.8474V11.7695C31.1991 10.1126 32.5423 8.76948 34.1991 8.76948Z" fill="#0B1A22"/>
<path id="Union_2" fill-rule="evenodd" clip-rule="evenodd" d="M81.7399 19.7978L72.194 10.2518C71.6082 9.66605 70.6584 9.66605 70.0727 10.2518C69.4869 10.8376 69.4869 11.7874 70.0727 12.3732L77.0579 19.3584H54.4454H53.664L53.2162 19.9988L40.095 38.7608L26.449 26.1619L26.0181 25.764H25.4315H4.95542C4.51341 24.9324 3.63825 24.3662 2.63085 24.3662C1.17787 24.3662 0 25.5441 0 26.997C0 28.45 1.17787 29.6279 2.63085 29.6279C3.4037 29.6279 4.09872 29.2946 4.58004 28.764H24.8449L39.3221 42.1303L40.5843 43.2957L41.5689 41.8879L55.2268 22.3584H77.0579L70.0727 29.3437C69.4869 29.9295 69.4869 30.8793 70.0727 31.465C70.6584 32.0508 71.6082 32.0508 72.194 31.465L81.7399 21.9191C82.3257 21.3333 82.3257 20.3836 81.7399 19.7978Z" fill="#0B1A22"/>
</g>
</svg>
