<svg width="375" height="524" viewBox="0 0 375 524" fill="none" xmlns="http://www.w3.org/2000/svg">
<rect width="375" height="90" rx="10" fill="#F5F5F5"/>
<path d="M45.282 33.8C45.282 32.9333 45.4286 32.0867 45.722 31.26C46.0286 30.42 46.4686 29.66 47.042 28.98C47.6286 28.2867 48.342 27.74 49.182 27.34C50.022 26.9267 50.9753 26.72 52.042 26.72C53.3086 26.72 54.3953 27.0133 55.302 27.6C56.2086 28.1733 56.882 28.9133 57.322 29.82L55.902 30.74C55.622 30.14 55.262 29.6667 54.822 29.32C54.3953 28.96 53.9286 28.7067 53.422 28.56C52.9286 28.4133 52.442 28.34 51.962 28.34C51.1753 28.34 50.4753 28.5 49.862 28.82C49.262 29.14 48.7553 29.5667 48.342 30.1C47.9286 30.6333 47.6153 31.2333 47.402 31.9C47.202 32.5533 47.102 33.2133 47.102 33.88C47.102 34.6133 47.222 35.32 47.462 36C47.7153 36.68 48.062 37.28 48.502 37.8C48.942 38.32 49.462 38.7333 50.062 39.04C50.662 39.3467 51.3153 39.5 52.022 39.5C52.5153 39.5 53.022 39.4133 53.542 39.24C54.062 39.0667 54.5486 38.8 55.002 38.44C55.4553 38.0667 55.8153 37.5867 56.082 37L57.582 37.82C57.2886 38.5267 56.8353 39.1267 56.222 39.62C55.6086 40.1133 54.922 40.4867 54.162 40.74C53.4153 40.9933 52.6753 41.12 51.942 41.12C50.9686 41.12 50.0753 40.9133 49.262 40.5C48.4486 40.0733 47.742 39.5133 47.142 38.82C46.5553 38.1133 46.0953 37.3267 45.762 36.46C45.442 35.58 45.282 34.6933 45.282 33.8ZM71.2548 26.8V41H69.4548V34.54H61.6348V41H59.8348V26.8H61.6348V32.94H69.4548V26.8H71.2548ZM80.419 41.1C79.419 41.1 78.5123 40.9 77.699 40.5C76.8857 40.1 76.179 39.56 75.579 38.88C74.9923 38.1867 74.539 37.4133 74.219 36.56C73.899 35.6933 73.739 34.8067 73.739 33.9C73.739 32.9533 73.9057 32.0533 74.239 31.2C74.5857 30.3333 75.059 29.5667 75.659 28.9C76.2723 28.22 76.9857 27.6867 77.799 27.3C78.6123 26.9 79.499 26.7 80.459 26.7C81.459 26.7 82.3657 26.9067 83.179 27.32C83.9923 27.7333 84.6923 28.2867 85.279 28.98C85.8657 29.6733 86.319 30.4467 86.639 31.3C86.959 32.1533 87.119 33.0267 87.119 33.92C87.119 34.8667 86.9523 35.7733 86.619 36.64C86.2857 37.4933 85.8123 38.26 85.199 38.94C84.599 39.6067 83.8923 40.1333 83.079 40.52C82.2657 40.9067 81.379 41.1 80.419 41.1ZM75.559 33.9C75.559 34.62 75.6723 35.32 75.899 36C76.139 36.6667 76.4723 37.26 76.899 37.78C77.3257 38.3 77.839 38.7133 78.439 39.02C79.039 39.3267 79.7057 39.48 80.439 39.48C81.199 39.48 81.879 39.32 82.479 39C83.079 38.68 83.5857 38.2533 83.999 37.72C84.4257 37.1867 84.7457 36.5867 84.959 35.92C85.1857 35.2533 85.299 34.58 85.299 33.9C85.299 33.18 85.179 32.4867 84.939 31.82C84.7123 31.1533 84.379 30.56 83.939 30.04C83.5123 29.5067 82.999 29.0933 82.399 28.8C81.8123 28.4933 81.159 28.34 80.439 28.34C79.679 28.34 78.999 28.5 78.399 28.82C77.799 29.1267 77.2857 29.5467 76.859 30.08C76.4457 30.6133 76.1257 31.2133 75.899 31.88C75.6723 32.5333 75.559 33.2067 75.559 33.9ZM95.3799 41.1C94.3799 41.1 93.4733 40.9 92.6599 40.5C91.8466 40.1 91.1399 39.56 90.5399 38.88C89.9533 38.1867 89.4999 37.4133 89.1799 36.56C88.8599 35.6933 88.6999 34.8067 88.6999 33.9C88.6999 32.9533 88.8666 32.0533 89.1999 31.2C89.5466 30.3333 90.0199 29.5667 90.6199 28.9C91.2333 28.22 91.9466 27.6867 92.7599 27.3C93.5733 26.9 94.4599 26.7 95.4199 26.7C96.4199 26.7 97.3266 26.9067 98.1399 27.32C98.9533 27.7333 99.6533 28.2867 100.24 28.98C100.827 29.6733 101.28 30.4467 101.6 31.3C101.92 32.1533 102.08 33.0267 102.08 33.92C102.08 34.8667 101.913 35.7733 101.58 36.64C101.247 37.4933 100.773 38.26 100.16 38.94C99.5599 39.6067 98.8533 40.1333 98.0399 40.52C97.2266 40.9067 96.3399 41.1 95.3799 41.1ZM90.5199 33.9C90.5199 34.62 90.6333 35.32 90.8599 36C91.0999 36.6667 91.4333 37.26 91.8599 37.78C92.2866 38.3 92.7999 38.7133 93.3999 39.02C93.9999 39.3267 94.6666 39.48 95.3999 39.48C96.1599 39.48 96.8399 39.32 97.4399 39C98.0399 38.68 98.5466 38.2533 98.9599 37.72C99.3866 37.1867 99.7066 36.5867 99.9199 35.92C100.147 35.2533 100.26 34.58 100.26 33.9C100.26 33.18 100.14 32.4867 99.8999 31.82C99.6733 31.1533 99.3399 30.56 98.8999 30.04C98.4733 29.5067 97.9599 29.0933 97.3599 28.8C96.7733 28.4933 96.1199 28.34 95.3999 28.34C94.6399 28.34 93.9599 28.5 93.3599 28.82C92.7599 29.1267 92.2466 29.5467 91.8199 30.08C91.4066 30.6133 91.0866 31.2133 90.8599 31.88C90.6333 32.5333 90.5199 33.2067 90.5199 33.9ZM112.921 29.78C112.761 29.5933 112.548 29.4133 112.281 29.24C112.014 29.0667 111.714 28.9133 111.381 28.78C111.048 28.6333 110.681 28.52 110.281 28.44C109.894 28.3467 109.488 28.3 109.061 28.3C107.968 28.3 107.161 28.5067 106.641 28.92C106.121 29.3333 105.861 29.9 105.861 30.62C105.861 31.1267 105.994 31.5267 106.261 31.82C106.528 32.1133 106.934 32.3533 107.481 32.54C108.041 32.7267 108.748 32.92 109.601 33.12C110.588 33.3333 111.441 33.5933 112.161 33.9C112.881 34.2067 113.434 34.62 113.821 35.14C114.208 35.6467 114.401 36.3267 114.401 37.18C114.401 37.86 114.268 38.4533 114.001 38.96C113.748 39.4533 113.388 39.8667 112.921 40.2C112.454 40.52 111.908 40.76 111.281 40.92C110.654 41.0667 109.974 41.14 109.241 41.14C108.521 41.14 107.814 41.0667 107.121 40.92C106.441 40.76 105.794 40.5333 105.181 40.24C104.568 39.9467 103.994 39.58 103.461 39.14L104.321 37.62C104.534 37.8467 104.808 38.0733 105.141 38.3C105.488 38.5133 105.874 38.7133 106.301 38.9C106.741 39.0867 107.214 39.24 107.721 39.36C108.228 39.4667 108.748 39.52 109.281 39.52C110.294 39.52 111.081 39.34 111.641 38.98C112.201 38.6067 112.481 38.0667 112.481 37.36C112.481 36.8267 112.321 36.4 112.001 36.08C111.694 35.76 111.234 35.4933 110.621 35.28C110.008 35.0667 109.261 34.8533 108.381 34.64C107.421 34.4 106.614 34.14 105.961 33.86C105.308 33.5667 104.814 33.1867 104.481 32.72C104.161 32.2533 104.001 31.6467 104.001 30.9C104.001 29.9933 104.221 29.2267 104.661 28.6C105.101 27.9733 105.708 27.5 106.481 27.18C107.254 26.86 108.128 26.7 109.101 26.7C109.741 26.7 110.334 26.7667 110.881 26.9C111.441 27.0333 111.961 27.22 112.441 27.46C112.921 27.7 113.361 27.9867 113.761 28.32L112.921 29.78ZM126.408 39.4V41H116.768V26.8H126.228V28.4H118.568V33H125.228V34.5H118.568V39.4H126.408ZM143.571 28.4H138.671V41H136.871V28.4H131.971V26.8H143.571V28.4ZM146.156 26.8L150.456 34.2L154.796 26.8H156.756L151.356 35.82V41H149.556V35.78L144.176 26.8H146.156ZM158.721 41V26.8H164.641C165.268 26.8 165.841 26.9333 166.361 27.2C166.881 27.4533 167.335 27.8 167.721 28.24C168.108 28.6667 168.408 29.1533 168.621 29.7C168.835 30.2333 168.941 30.78 168.941 31.34C168.941 32.1133 168.768 32.8533 168.421 33.56C168.075 34.2533 167.588 34.82 166.961 35.26C166.335 35.6867 165.601 35.9 164.761 35.9H160.521V41H158.721ZM160.521 34.3H164.661C165.155 34.3 165.581 34.1667 165.941 33.9C166.315 33.6333 166.601 33.2733 166.801 32.82C167.015 32.3667 167.121 31.8733 167.121 31.34C167.121 30.78 167.001 30.28 166.761 29.84C166.521 29.3867 166.208 29.0333 165.821 28.78C165.435 28.5267 165.008 28.4 164.541 28.4H160.521V34.3ZM180.822 39.4V41H171.182V26.8H180.642V28.4H172.982V33H179.642V34.5H172.982V39.4H180.822ZM194.11 41.1C193.11 41.1 192.204 40.9 191.39 40.5C190.577 40.1 189.87 39.56 189.27 38.88C188.684 38.1867 188.23 37.4133 187.91 36.56C187.59 35.6933 187.43 34.8067 187.43 33.9C187.43 32.9533 187.597 32.0533 187.93 31.2C188.277 30.3333 188.75 29.5667 189.35 28.9C189.964 28.22 190.677 27.6867 191.49 27.3C192.304 26.9 193.19 26.7 194.15 26.7C195.15 26.7 196.057 26.9067 196.87 27.32C197.684 27.7333 198.384 28.2867 198.97 28.98C199.557 29.6733 200.01 30.4467 200.33 31.3C200.65 32.1533 200.81 33.0267 200.81 33.92C200.81 34.8667 200.644 35.7733 200.31 36.64C199.977 37.4933 199.504 38.26 198.89 38.94C198.29 39.6067 197.584 40.1333 196.77 40.52C195.957 40.9067 195.07 41.1 194.11 41.1ZM189.25 33.9C189.25 34.62 189.364 35.32 189.59 36C189.83 36.6667 190.164 37.26 190.59 37.78C191.017 38.3 191.53 38.7133 192.13 39.02C192.73 39.3267 193.397 39.48 194.13 39.48C194.89 39.48 195.57 39.32 196.17 39C196.77 38.68 197.277 38.2533 197.69 37.72C198.117 37.1867 198.437 36.5867 198.65 35.92C198.877 35.2533 198.99 34.58 198.99 33.9C198.99 33.18 198.87 32.4867 198.63 31.82C198.404 31.1533 198.07 30.56 197.63 30.04C197.204 29.5067 196.69 29.0933 196.09 28.8C195.504 28.4933 194.85 28.34 194.13 28.34C193.37 28.34 192.69 28.5 192.09 28.82C191.49 29.1267 190.977 29.5467 190.55 30.08C190.137 30.6133 189.817 31.2133 189.59 31.88C189.364 32.5333 189.25 33.2067 189.25 33.9ZM203.311 41V26.8H212.691V28.4H205.111V33.14H211.491V34.64H205.111V41H203.311ZM219.359 26.8L223.659 34.2L227.999 26.8H229.959L224.559 35.82V41H222.759V35.78L217.379 26.8H219.359ZM236.767 41.1C235.767 41.1 234.86 40.9 234.047 40.5C233.233 40.1 232.527 39.56 231.927 38.88C231.34 38.1867 230.887 37.4133 230.567 36.56C230.247 35.6933 230.087 34.8067 230.087 33.9C230.087 32.9533 230.253 32.0533 230.587 31.2C230.933 30.3333 231.407 29.5667 232.007 28.9C232.62 28.22 233.333 27.6867 234.147 27.3C234.96 26.9 235.847 26.7 236.807 26.7C237.807 26.7 238.713 26.9067 239.527 27.32C240.34 27.7333 241.04 28.2867 241.627 28.98C242.213 29.6733 242.667 30.4467 242.987 31.3C243.307 32.1533 243.467 33.0267 243.467 33.92C243.467 34.8667 243.3 35.7733 242.967 36.64C242.633 37.4933 242.16 38.26 241.547 38.94C240.947 39.6067 240.24 40.1333 239.427 40.52C238.613 40.9067 237.727 41.1 236.767 41.1ZM231.907 33.9C231.907 34.62 232.02 35.32 232.247 36C232.487 36.6667 232.82 37.26 233.247 37.78C233.673 38.3 234.187 38.7133 234.787 39.02C235.387 39.3267 236.053 39.48 236.787 39.48C237.547 39.48 238.227 39.32 238.827 39C239.427 38.68 239.933 38.2533 240.347 37.72C240.773 37.1867 241.093 36.5867 241.307 35.92C241.533 35.2533 241.647 34.58 241.647 33.9C241.647 33.18 241.527 32.4867 241.287 31.82C241.06 31.1533 240.727 30.56 240.287 30.04C239.86 29.5067 239.347 29.0933 238.747 28.8C238.16 28.4933 237.507 28.34 236.787 28.34C236.027 28.34 235.347 28.5 234.747 28.82C234.147 29.1267 233.633 29.5467 233.207 30.08C232.793 30.6133 232.473 31.2133 232.247 31.88C232.02 32.5333 231.907 33.2067 231.907 33.9ZM251.828 41.1C250.694 41.1 249.741 40.9067 248.968 40.52C248.194 40.12 247.574 39.5867 247.108 38.92C246.641 38.24 246.301 37.4733 246.088 36.62C245.874 35.7667 245.768 34.8867 245.768 33.98V26.8H247.568V33.98C247.568 34.6733 247.634 35.3533 247.768 36.02C247.914 36.6733 248.148 37.26 248.468 37.78C248.788 38.3 249.221 38.7133 249.768 39.02C250.314 39.3267 250.994 39.48 251.808 39.48C252.634 39.48 253.321 39.3267 253.868 39.02C254.414 38.7 254.848 38.28 255.168 37.76C255.488 37.2267 255.714 36.6333 255.848 35.98C255.994 35.3267 256.068 34.66 256.068 33.98V26.8H257.868V33.98C257.868 34.94 257.754 35.8533 257.528 36.72C257.314 37.5733 256.968 38.3267 256.488 38.98C256.008 39.6333 255.381 40.1533 254.608 40.54C253.848 40.9133 252.921 41.1 251.828 41.1ZM261.065 41V26.8H267.145C267.772 26.8 268.345 26.9333 268.865 27.2C269.385 27.4533 269.839 27.8 270.225 28.24C270.612 28.6667 270.912 29.1533 271.125 29.7C271.339 30.2333 271.445 30.78 271.445 31.34C271.445 31.9933 271.319 32.6133 271.065 33.2C270.825 33.7867 270.479 34.2867 270.025 34.7C269.585 35.1133 269.065 35.4 268.465 35.56L271.905 41H269.865L266.625 35.9H262.865V41H261.065ZM262.865 34.3H267.165C267.659 34.3 268.085 34.1667 268.445 33.9C268.819 33.62 269.105 33.2533 269.305 32.8C269.519 32.3467 269.625 31.86 269.625 31.34C269.625 30.8067 269.505 30.32 269.265 29.88C269.025 29.4267 268.712 29.0667 268.325 28.8C267.939 28.5333 267.512 28.4 267.045 28.4H262.865V34.3ZM288.903 28.4H284.003V41H282.203V28.4H277.303V26.8H288.903V28.4ZM293.92 26.8H295.44L301.24 41H299.32L297.64 36.84H291.68L290.02 41H288.1L293.92 26.8ZM297.24 35.44L294.68 28.88L292.04 35.44H297.24ZM311.28 29.78C311.12 29.5933 310.907 29.4133 310.64 29.24C310.374 29.0667 310.074 28.9133 309.74 28.78C309.407 28.6333 309.04 28.52 308.64 28.44C308.254 28.3467 307.847 28.3 307.42 28.3C306.327 28.3 305.52 28.5067 305 28.92C304.48 29.3333 304.22 29.9 304.22 30.62C304.22 31.1267 304.354 31.5267 304.62 31.82C304.887 32.1133 305.294 32.3533 305.84 32.54C306.4 32.7267 307.107 32.92 307.96 33.12C308.947 33.3333 309.8 33.5933 310.52 33.9C311.24 34.2067 311.794 34.62 312.18 35.14C312.567 35.6467 312.76 36.3267 312.76 37.18C312.76 37.86 312.627 38.4533 312.36 38.96C312.107 39.4533 311.747 39.8667 311.28 40.2C310.814 40.52 310.267 40.76 309.64 40.92C309.014 41.0667 308.334 41.14 307.6 41.14C306.88 41.14 306.174 41.0667 305.48 40.92C304.8 40.76 304.154 40.5333 303.54 40.24C302.927 39.9467 302.354 39.58 301.82 39.14L302.68 37.62C302.894 37.8467 303.167 38.0733 303.5 38.3C303.847 38.5133 304.234 38.7133 304.66 38.9C305.1 39.0867 305.574 39.24 306.08 39.36C306.587 39.4667 307.107 39.52 307.64 39.52C308.654 39.52 309.44 39.34 310 38.98C310.56 38.6067 310.84 38.0667 310.84 37.36C310.84 36.8267 310.68 36.4 310.36 36.08C310.054 35.76 309.594 35.4933 308.98 35.28C308.367 35.0667 307.62 34.8533 306.74 34.64C305.78 34.4 304.974 34.14 304.32 33.86C303.667 33.5667 303.174 33.1867 302.84 32.72C302.52 32.2533 302.36 31.6467 302.36 30.9C302.36 29.9933 302.58 29.2267 303.02 28.6C303.46 27.9733 304.067 27.5 304.84 27.18C305.614 26.86 306.487 26.7 307.46 26.7C308.1 26.7 308.694 26.7667 309.24 26.9C309.8 27.0333 310.32 27.22 310.8 27.46C311.28 27.7 311.72 27.9867 312.12 28.32L311.28 29.78ZM315.128 41V26.82H316.928V34.66L324.248 26.8H326.188L320.488 33.06L326.508 41H324.488L319.348 34.14L316.928 36.66V41H315.128ZM327.755 32.88V30.64H329.215V32.88H327.755ZM327.755 41V38.76H329.215V41H327.755ZM28.6043 64V49.8H34.6843C35.311 49.8 35.8843 49.9333 36.4043 50.2C36.9243 50.4533 37.3776 50.8 37.7643 51.24C38.151 51.6667 38.451 52.1533 38.6643 52.7C38.8776 53.2333 38.9843 53.78 38.9843 54.34C38.9843 54.9933 38.8576 55.6133 38.6043 56.2C38.3643 56.7867 38.0176 57.2867 37.5643 57.7C37.1243 58.1133 36.6043 58.4 36.0043 58.56L39.4443 64H37.4043L34.1643 58.9H30.4043V64H28.6043ZM30.4043 57.3H34.7043C35.1976 57.3 35.6243 57.1667 35.9843 56.9C36.3576 56.62 36.6443 56.2533 36.8443 55.8C37.0576 55.3467 37.1643 54.86 37.1643 54.34C37.1643 53.8067 37.0443 53.32 36.8043 52.88C36.5643 52.4267 36.251 52.0667 35.8643 51.8C35.4776 51.5333 35.051 51.4 34.5843 51.4H30.4043V57.3ZM51.3888 62.4V64H41.7488V49.8H51.2088V51.4H43.5488V56H50.2088V57.5H43.5488V62.4H51.3888ZM59.2848 64.1C58.3514 64.1 57.4781 63.9 56.6648 63.5C55.8648 63.0867 55.1648 62.54 54.5648 61.86C53.9648 61.1667 53.4981 60.3933 53.1648 59.54C52.8314 58.6733 52.6648 57.78 52.6648 56.86C52.6648 55.9 52.8314 54.9933 53.1648 54.14C53.4981 53.2733 53.9581 52.5067 54.5448 51.84C55.1448 51.1733 55.8448 50.6533 56.6448 50.28C57.4581 49.8933 58.3381 49.7 59.2848 49.7C60.6581 49.7 61.7914 49.9867 62.6848 50.56C63.5781 51.1333 64.2514 51.88 64.7048 52.8L63.3248 53.76C62.9114 52.9333 62.3448 52.32 61.6248 51.92C60.9048 51.52 60.1114 51.32 59.2448 51.32C58.5248 51.32 57.8714 51.4733 57.2848 51.78C56.6981 52.0867 56.1914 52.5067 55.7648 53.04C55.3514 53.56 55.0314 54.1533 54.8048 54.82C54.5914 55.4867 54.4848 56.18 54.4848 56.9C54.4848 57.66 54.6048 58.38 54.8448 59.06C55.0981 59.7267 55.4514 60.32 55.9048 60.84C56.3581 61.3467 56.8848 61.7467 57.4848 62.04C58.0848 62.3333 58.7314 62.48 59.4248 62.48C60.2381 62.48 61.0114 62.2733 61.7448 61.86C62.4781 61.4467 63.1714 60.8133 63.8248 59.96V61.82C62.5448 63.34 61.0314 64.1 59.2848 64.1ZM63.6048 58.28H60.5448V56.92H65.1248V64H63.6048V58.28ZM67.8621 64V49.8H73.9421C74.5688 49.8 75.1421 49.9333 75.6621 50.2C76.1821 50.4533 76.6354 50.8 77.0221 51.24C77.4088 51.6667 77.7088 52.1533 77.9221 52.7C78.1354 53.2333 78.2421 53.78 78.2421 54.34C78.2421 54.9933 78.1154 55.6133 77.8621 56.2C77.6221 56.7867 77.2754 57.2867 76.8221 57.7C76.3821 58.1133 75.8621 58.4 75.2621 58.56L78.7021 64H76.6621L73.4221 58.9H69.6621V64H67.8621ZM69.6621 57.3H73.9621C74.4554 57.3 74.8821 57.1667 75.2421 56.9C75.6154 56.62 75.9021 56.2533 76.1021 55.8C76.3154 55.3467 76.4221 54.86 76.4221 54.34C76.4221 53.8067 76.3021 53.32 76.0621 52.88C75.8221 52.4267 75.5088 52.0667 75.1221 51.8C74.7354 51.5333 74.3088 51.4 73.8421 51.4H69.6621V57.3ZM90.6466 62.4V64H81.0066V49.8H90.4666V51.4H82.8066V56H89.4666V57.5H82.8066V62.4H90.6466ZM101.456 52.78C101.296 52.5933 101.083 52.4133 100.816 52.24C100.549 52.0667 100.249 51.9133 99.916 51.78C99.5827 51.6333 99.216 51.52 98.816 51.44C98.4293 51.3467 98.0227 51.3 97.596 51.3C96.5027 51.3 95.696 51.5067 95.176 51.92C94.656 52.3333 94.396 52.9 94.396 53.62C94.396 54.1267 94.5293 54.5267 94.796 54.82C95.0627 55.1133 95.4693 55.3533 96.016 55.54C96.576 55.7267 97.2827 55.92 98.136 56.12C99.1227 56.3333 99.976 56.5933 100.696 56.9C101.416 57.2067 101.969 57.62 102.356 58.14C102.743 58.6467 102.936 59.3267 102.936 60.18C102.936 60.86 102.803 61.4533 102.536 61.96C102.283 62.4533 101.923 62.8667 101.456 63.2C100.989 63.52 100.443 63.76 99.816 63.92C99.1893 64.0667 98.5093 64.14 97.776 64.14C97.056 64.14 96.3493 64.0667 95.656 63.92C94.976 63.76 94.3293 63.5333 93.716 63.24C93.1027 62.9467 92.5293 62.58 91.996 62.14L92.856 60.62C93.0693 60.8467 93.3427 61.0733 93.676 61.3C94.0227 61.5133 94.4093 61.7133 94.836 61.9C95.276 62.0867 95.7493 62.24 96.256 62.36C96.7627 62.4667 97.2827 62.52 97.816 62.52C98.8293 62.52 99.616 62.34 100.176 61.98C100.736 61.6067 101.016 61.0667 101.016 60.36C101.016 59.8267 100.856 59.4 100.536 59.08C100.229 58.76 99.7693 58.4933 99.156 58.28C98.5427 58.0667 97.796 57.8533 96.916 57.64C95.956 57.4 95.1493 57.14 94.496 56.86C93.8427 56.5667 93.3493 56.1867 93.016 55.72C92.696 55.2533 92.536 54.6467 92.536 53.9C92.536 52.9933 92.756 52.2267 93.196 51.6C93.636 50.9733 94.2427 50.5 95.016 50.18C95.7893 49.86 96.6627 49.7 97.636 49.7C98.276 49.7 98.8693 49.7667 99.416 49.9C99.976 50.0333 100.496 50.22 100.976 50.46C101.456 50.7 101.896 50.9867 102.296 51.32L101.456 52.78ZM113.644 52.78C113.484 52.5933 113.27 52.4133 113.004 52.24C112.737 52.0667 112.437 51.9133 112.104 51.78C111.77 51.6333 111.404 51.52 111.004 51.44C110.617 51.3467 110.21 51.3 109.784 51.3C108.69 51.3 107.884 51.5067 107.364 51.92C106.844 52.3333 106.584 52.9 106.584 53.62C106.584 54.1267 106.717 54.5267 106.984 54.82C107.25 55.1133 107.657 55.3533 108.204 55.54C108.764 55.7267 109.47 55.92 110.324 56.12C111.31 56.3333 112.164 56.5933 112.884 56.9C113.604 57.2067 114.157 57.62 114.544 58.14C114.93 58.6467 115.124 59.3267 115.124 60.18C115.124 60.86 114.99 61.4533 114.724 61.96C114.47 62.4533 114.11 62.8667 113.644 63.2C113.177 63.52 112.63 63.76 112.004 63.92C111.377 64.0667 110.697 64.14 109.964 64.14C109.244 64.14 108.537 64.0667 107.844 63.92C107.164 63.76 106.517 63.5333 105.904 63.24C105.29 62.9467 104.717 62.58 104.184 62.14L105.044 60.62C105.257 60.8467 105.53 61.0733 105.864 61.3C106.21 61.5133 106.597 61.7133 107.024 61.9C107.464 62.0867 107.937 62.24 108.444 62.36C108.95 62.4667 109.47 62.52 110.004 62.52C111.017 62.52 111.804 62.34 112.364 61.98C112.924 61.6067 113.204 61.0667 113.204 60.36C113.204 59.8267 113.044 59.4 112.724 59.08C112.417 58.76 111.957 58.4933 111.344 58.28C110.73 58.0667 109.984 57.8533 109.104 57.64C108.144 57.4 107.337 57.14 106.684 56.86C106.03 56.5667 105.537 56.1867 105.204 55.72C104.884 55.2533 104.724 54.6467 104.724 53.9C104.724 52.9933 104.944 52.2267 105.384 51.6C105.824 50.9733 106.43 50.5 107.204 50.18C107.977 49.86 108.85 49.7 109.824 49.7C110.464 49.7 111.057 49.7667 111.604 49.9C112.164 50.0333 112.684 50.22 113.164 50.46C113.644 50.7 114.084 50.9867 114.484 51.32L113.644 52.78ZM117.491 64V49.8H119.291V64H117.491ZM128.446 64.1C127.446 64.1 126.54 63.9 125.726 63.5C124.913 63.1 124.206 62.56 123.606 61.88C123.02 61.1867 122.566 60.4133 122.246 59.56C121.926 58.6933 121.766 57.8067 121.766 56.9C121.766 55.9533 121.933 55.0533 122.266 54.2C122.613 53.3333 123.086 52.5667 123.686 51.9C124.3 51.22 125.013 50.6867 125.826 50.3C126.64 49.9 127.526 49.7 128.486 49.7C129.486 49.7 130.393 49.9067 131.206 50.32C132.02 50.7333 132.72 51.2867 133.306 51.98C133.893 52.6733 134.346 53.4467 134.666 54.3C134.986 55.1533 135.146 56.0267 135.146 56.92C135.146 57.8667 134.98 58.7733 134.646 59.64C134.313 60.4933 133.84 61.26 133.226 61.94C132.626 62.6067 131.92 63.1333 131.106 63.52C130.293 63.9067 129.406 64.1 128.446 64.1ZM123.586 56.9C123.586 57.62 123.7 58.32 123.926 59C124.166 59.6667 124.5 60.26 124.926 60.78C125.353 61.3 125.866 61.7133 126.466 62.02C127.066 62.3267 127.733 62.48 128.466 62.48C129.226 62.48 129.906 62.32 130.506 62C131.106 61.68 131.613 61.2533 132.026 60.72C132.453 60.1867 132.773 59.5867 132.986 58.92C133.213 58.2533 133.326 57.58 133.326 56.9C133.326 56.18 133.206 55.4867 132.966 54.82C132.74 54.1533 132.406 53.56 131.966 53.04C131.54 52.5067 131.026 52.0933 130.426 51.8C129.84 51.4933 129.186 51.34 128.466 51.34C127.706 51.34 127.026 51.5 126.426 51.82C125.826 52.1267 125.313 52.5467 124.886 53.08C124.473 53.6133 124.153 54.2133 123.926 54.88C123.7 55.5333 123.586 56.2067 123.586 56.9ZM139.447 53.12V64H137.647V49.8H139.167L147.847 60.9V49.82H149.647V64H148.007L139.447 53.12ZM163.856 64.1C162.856 64.1 161.95 63.9 161.136 63.5C160.323 63.1 159.616 62.56 159.016 61.88C158.43 61.1867 157.976 60.4133 157.656 59.56C157.336 58.6933 157.176 57.8067 157.176 56.9C157.176 55.9533 157.343 55.0533 157.676 54.2C158.023 53.3333 158.496 52.5667 159.096 51.9C159.71 51.22 160.423 50.6867 161.236 50.3C162.05 49.9 162.936 49.7 163.896 49.7C164.896 49.7 165.803 49.9067 166.616 50.32C167.43 50.7333 168.13 51.2867 168.716 51.98C169.303 52.6733 169.756 53.4467 170.076 54.3C170.396 55.1533 170.556 56.0267 170.556 56.92C170.556 57.8667 170.39 58.7733 170.056 59.64C169.723 60.4933 169.25 61.26 168.636 61.94C168.036 62.6067 167.33 63.1333 166.516 63.52C165.703 63.9067 164.816 64.1 163.856 64.1ZM158.996 56.9C158.996 57.62 159.11 58.32 159.336 59C159.576 59.6667 159.91 60.26 160.336 60.78C160.763 61.3 161.276 61.7133 161.876 62.02C162.476 62.3267 163.143 62.48 163.876 62.48C164.636 62.48 165.316 62.32 165.916 62C166.516 61.68 167.023 61.2533 167.436 60.72C167.863 60.1867 168.183 59.5867 168.396 58.92C168.623 58.2533 168.736 57.58 168.736 56.9C168.736 56.18 168.616 55.4867 168.376 54.82C168.15 54.1533 167.816 53.56 167.376 53.04C166.95 52.5067 166.436 52.0933 165.836 51.8C165.25 51.4933 164.596 51.34 163.876 51.34C163.116 51.34 162.436 51.5 161.836 51.82C161.236 52.1267 160.723 52.5467 160.296 53.08C159.883 53.6133 159.563 54.2133 159.336 54.88C159.11 55.5333 158.996 56.2067 158.996 56.9ZM173.057 64V49.8H179.137C179.764 49.8 180.337 49.9333 180.857 50.2C181.377 50.4533 181.831 50.8 182.217 51.24C182.604 51.6667 182.904 52.1533 183.117 52.7C183.331 53.2333 183.437 53.78 183.437 54.34C183.437 54.9933 183.311 55.6133 183.057 56.2C182.817 56.7867 182.471 57.2867 182.017 57.7C181.577 58.1133 181.057 58.4 180.457 58.56L183.897 64H181.857L178.617 58.9H174.857V64H173.057ZM174.857 57.3H179.157C179.651 57.3 180.077 57.1667 180.437 56.9C180.811 56.62 181.097 56.2533 181.297 55.8C181.511 55.3467 181.617 54.86 181.617 54.34C181.617 53.8067 181.497 53.32 181.257 52.88C181.017 52.4267 180.704 52.0667 180.317 51.8C179.931 51.5333 179.504 51.4 179.037 51.4H174.857V57.3ZM190.341 56.8C190.341 55.9333 190.487 55.0867 190.781 54.26C191.087 53.42 191.527 52.66 192.101 51.98C192.687 51.2867 193.401 50.74 194.241 50.34C195.081 49.9267 196.034 49.72 197.101 49.72C198.367 49.72 199.454 50.0133 200.361 50.6C201.267 51.1733 201.941 51.9133 202.381 52.82L200.961 53.74C200.681 53.14 200.321 52.6667 199.881 52.32C199.454 51.96 198.987 51.7067 198.481 51.56C197.987 51.4133 197.501 51.34 197.021 51.34C196.234 51.34 195.534 51.5 194.921 51.82C194.321 52.14 193.814 52.5667 193.401 53.1C192.987 53.6333 192.674 54.2333 192.461 54.9C192.261 55.5533 192.161 56.2133 192.161 56.88C192.161 57.6133 192.281 58.32 192.521 59C192.774 59.68 193.121 60.28 193.561 60.8C194.001 61.32 194.521 61.7333 195.121 62.04C195.721 62.3467 196.374 62.5 197.081 62.5C197.574 62.5 198.081 62.4133 198.601 62.24C199.121 62.0667 199.607 61.8 200.061 61.44C200.514 61.0667 200.874 60.5867 201.141 60L202.641 60.82C202.347 61.5267 201.894 62.1267 201.281 62.62C200.667 63.1133 199.981 63.4867 199.221 63.74C198.474 63.9933 197.734 64.12 197.001 64.12C196.027 64.12 195.134 63.9133 194.321 63.5C193.507 63.0733 192.801 62.5133 192.201 61.82C191.614 61.1133 191.154 60.3267 190.821 59.46C190.501 58.58 190.341 57.6933 190.341 56.8ZM204.893 64V49.8H206.693V62.4H214.613V64H204.893ZM220.893 49.8H222.413L228.213 64H226.293L224.613 59.84H218.653L216.993 64H215.073L220.893 49.8ZM224.213 58.44L221.653 51.88L219.013 58.44H224.213ZM238.253 52.78C238.093 52.5933 237.88 52.4133 237.613 52.24C237.346 52.0667 237.046 51.9133 236.713 51.78C236.38 51.6333 236.013 51.52 235.613 51.44C235.226 51.3467 234.82 51.3 234.393 51.3C233.3 51.3 232.493 51.5067 231.973 51.92C231.453 52.3333 231.193 52.9 231.193 53.62C231.193 54.1267 231.326 54.5267 231.593 54.82C231.86 55.1133 232.266 55.3533 232.813 55.54C233.373 55.7267 234.08 55.92 234.933 56.12C235.92 56.3333 236.773 56.5933 237.493 56.9C238.213 57.2067 238.766 57.62 239.153 58.14C239.54 58.6467 239.733 59.3267 239.733 60.18C239.733 60.86 239.6 61.4533 239.333 61.96C239.08 62.4533 238.72 62.8667 238.253 63.2C237.786 63.52 237.24 63.76 236.613 63.92C235.986 64.0667 235.306 64.14 234.573 64.14C233.853 64.14 233.146 64.0667 232.453 63.92C231.773 63.76 231.126 63.5333 230.513 63.24C229.9 62.9467 229.326 62.58 228.793 62.14L229.653 60.62C229.866 60.8467 230.14 61.0733 230.473 61.3C230.82 61.5133 231.206 61.7133 231.633 61.9C232.073 62.0867 232.546 62.24 233.053 62.36C233.56 62.4667 234.08 62.52 234.613 62.52C235.626 62.52 236.413 62.34 236.973 61.98C237.533 61.6067 237.813 61.0667 237.813 60.36C237.813 59.8267 237.653 59.4 237.333 59.08C237.026 58.76 236.566 58.4933 235.953 58.28C235.34 58.0667 234.593 57.8533 233.713 57.64C232.753 57.4 231.946 57.14 231.293 56.86C230.64 56.5667 230.146 56.1867 229.813 55.72C229.493 55.2533 229.333 54.6467 229.333 53.9C229.333 52.9933 229.553 52.2267 229.993 51.6C230.433 50.9733 231.04 50.5 231.813 50.18C232.586 49.86 233.46 49.7 234.433 49.7C235.073 49.7 235.666 49.7667 236.213 49.9C236.773 50.0333 237.293 50.22 237.773 50.46C238.253 50.7 238.693 50.9867 239.093 51.32L238.253 52.78ZM250.44 52.78C250.28 52.5933 250.067 52.4133 249.8 52.24C249.534 52.0667 249.234 51.9133 248.9 51.78C248.567 51.6333 248.2 51.52 247.8 51.44C247.414 51.3467 247.007 51.3 246.58 51.3C245.487 51.3 244.68 51.5067 244.16 51.92C243.64 52.3333 243.38 52.9 243.38 53.62C243.38 54.1267 243.514 54.5267 243.78 54.82C244.047 55.1133 244.454 55.3533 245 55.54C245.56 55.7267 246.267 55.92 247.12 56.12C248.107 56.3333 248.96 56.5933 249.68 56.9C250.4 57.2067 250.954 57.62 251.34 58.14C251.727 58.6467 251.92 59.3267 251.92 60.18C251.92 60.86 251.787 61.4533 251.52 61.96C251.267 62.4533 250.907 62.8667 250.44 63.2C249.974 63.52 249.427 63.76 248.8 63.92C248.174 64.0667 247.494 64.14 246.76 64.14C246.04 64.14 245.334 64.0667 244.64 63.92C243.96 63.76 243.314 63.5333 242.7 63.24C242.087 62.9467 241.514 62.58 240.98 62.14L241.84 60.62C242.054 60.8467 242.327 61.0733 242.66 61.3C243.007 61.5133 243.394 61.7133 243.82 61.9C244.26 62.0867 244.734 62.24 245.24 62.36C245.747 62.4667 246.267 62.52 246.8 62.52C247.814 62.52 248.6 62.34 249.16 61.98C249.72 61.6067 250 61.0667 250 60.36C250 59.8267 249.84 59.4 249.52 59.08C249.214 58.76 248.754 58.4933 248.14 58.28C247.527 58.0667 246.78 57.8533 245.9 57.64C244.94 57.4 244.134 57.14 243.48 56.86C242.827 56.5667 242.334 56.1867 242 55.72C241.68 55.2533 241.52 54.6467 241.52 53.9C241.52 52.9933 241.74 52.2267 242.18 51.6C242.62 50.9733 243.227 50.5 244 50.18C244.774 49.86 245.647 49.7 246.62 49.7C247.26 49.7 247.854 49.7667 248.4 49.9C248.96 50.0333 249.48 50.22 249.96 50.46C250.44 50.7 250.88 50.9867 251.28 51.32L250.44 52.78ZM254.288 64V49.8H256.088V64H254.288ZM259.483 64V49.8H268.863V51.4H261.283V56.14H267.663V57.64H261.283V64H259.483ZM271.143 64V49.8H272.943V64H271.143ZM275.419 56.8C275.419 55.9333 275.565 55.0867 275.859 54.26C276.165 53.42 276.605 52.66 277.179 51.98C277.765 51.2867 278.479 50.74 279.319 50.34C280.159 49.9267 281.112 49.72 282.179 49.72C283.445 49.72 284.532 50.0133 285.439 50.6C286.345 51.1733 287.019 51.9133 287.459 52.82L286.039 53.74C285.759 53.14 285.399 52.6667 284.959 52.32C284.532 51.96 284.065 51.7067 283.559 51.56C283.065 51.4133 282.579 51.34 282.099 51.34C281.312 51.34 280.612 51.5 279.999 51.82C279.399 52.14 278.892 52.5667 278.479 53.1C278.065 53.6333 277.752 54.2333 277.539 54.9C277.339 55.5533 277.239 56.2133 277.239 56.88C277.239 57.6133 277.359 58.32 277.599 59C277.852 59.68 278.199 60.28 278.639 60.8C279.079 61.32 279.599 61.7333 280.199 62.04C280.799 62.3467 281.452 62.5 282.159 62.5C282.652 62.5 283.159 62.4133 283.679 62.24C284.199 62.0667 284.685 61.8 285.139 61.44C285.592 61.0667 285.952 60.5867 286.219 60L287.719 60.82C287.425 61.5267 286.972 62.1267 286.359 62.62C285.745 63.1133 285.059 63.4867 284.299 63.74C283.552 63.9933 282.812 64.12 282.079 64.12C281.105 64.12 280.212 63.9133 279.399 63.5C278.585 63.0733 277.879 62.5133 277.279 61.82C276.692 61.1133 276.232 60.3267 275.899 59.46C275.579 58.58 275.419 57.6933 275.419 56.8ZM294.096 49.8H295.616L301.416 64H299.496L297.816 59.84H291.856L290.196 64H288.276L294.096 49.8ZM297.416 58.44L294.856 51.88L292.216 58.44H297.416ZM312.204 51.4H307.304V64H305.504V51.4H300.604V49.8H312.204V51.4ZM314.249 64V49.8H316.049V64H314.249ZM325.204 64.1C324.204 64.1 323.297 63.9 322.484 63.5C321.671 63.1 320.964 62.56 320.364 61.88C319.777 61.1867 319.324 60.4133 319.004 59.56C318.684 58.6933 318.524 57.8067 318.524 56.9C318.524 55.9533 318.691 55.0533 319.024 54.2C319.371 53.3333 319.844 52.5667 320.444 51.9C321.057 51.22 321.771 50.6867 322.584 50.3C323.397 49.9 324.284 49.7 325.244 49.7C326.244 49.7 327.151 49.9067 327.964 50.32C328.777 50.7333 329.477 51.2867 330.064 51.98C330.651 52.6733 331.104 53.4467 331.424 54.3C331.744 55.1533 331.904 56.0267 331.904 56.92C331.904 57.8667 331.737 58.7733 331.404 59.64C331.071 60.4933 330.597 61.26 329.984 61.94C329.384 62.6067 328.677 63.1333 327.864 63.52C327.051 63.9067 326.164 64.1 325.204 64.1ZM320.344 56.9C320.344 57.62 320.457 58.32 320.684 59C320.924 59.6667 321.257 60.26 321.684 60.78C322.111 61.3 322.624 61.7133 323.224 62.02C323.824 62.3267 324.491 62.48 325.224 62.48C325.984 62.48 326.664 62.32 327.264 62C327.864 61.68 328.371 61.2533 328.784 60.72C329.211 60.1867 329.531 59.5867 329.744 58.92C329.971 58.2533 330.084 57.58 330.084 56.9C330.084 56.18 329.964 55.4867 329.724 54.82C329.497 54.1533 329.164 53.56 328.724 53.04C328.297 52.5067 327.784 52.0933 327.184 51.8C326.597 51.4933 325.944 51.34 325.224 51.34C324.464 51.34 323.784 51.5 323.184 51.82C322.584 52.1267 322.071 52.5467 321.644 53.08C321.231 53.6133 320.911 54.2133 320.684 54.88C320.457 55.5333 320.344 56.2067 320.344 56.9ZM336.205 53.12V64H334.405V49.8H335.925L344.605 60.9V49.82H346.405V64H344.765L336.205 53.12Z" fill="#0B1B23"/>
<path d="M189 95C189 94.1716 188.328 93.5 187.5 93.5C186.672 93.5 186 94.1716 186 95L189 95ZM186.439 140.468C187.025 141.053 187.975 141.053 188.561 140.468L198.107 130.922C198.692 130.336 198.692 129.386 198.107 128.8C197.521 128.215 196.571 128.215 195.985 128.8L187.5 137.286L179.015 128.8C178.429 128.215 177.479 128.215 176.893 128.8C176.308 129.386 176.308 130.336 176.893 130.922L186.439 140.468ZM186 95L186 139.407L189 139.407L189 95L186 95Z" fill="#F5F5F5"/>
<rect y="144.406" width="375" height="90" rx="10" fill="#F5F5F5"/>
<path d="M23.2802 174.186C23.1202 174 22.9069 173.82 22.6402 173.646C22.3736 173.473 22.0736 173.32 21.7402 173.186C21.4069 173.04 21.0402 172.926 20.6402 172.846C20.2536 172.753 19.8469 172.706 19.4202 172.706C18.3269 172.706 17.5202 172.913 17.0002 173.326C16.4802 173.74 16.2202 174.306 16.2202 175.026C16.2202 175.533 16.3536 175.933 16.6202 176.226C16.8869 176.52 17.2936 176.76 17.8402 176.946C18.4002 177.133 19.1069 177.326 19.9602 177.526C20.9469 177.74 21.8002 178 22.5202 178.306C23.2402 178.613 23.7936 179.026 24.1802 179.546C24.5669 180.053 24.7602 180.733 24.7602 181.586C24.7602 182.266 24.6269 182.86 24.3602 183.366C24.1069 183.86 23.7469 184.273 23.2802 184.606C22.8136 184.926 22.2669 185.166 21.6402 185.326C21.0136 185.473 20.3336 185.546 19.6002 185.546C18.8802 185.546 18.1736 185.473 17.4802 185.326C16.8002 185.166 16.1536 184.94 15.5402 184.646C14.9269 184.353 14.3536 183.986 13.8202 183.546L14.6802 182.026C14.8936 182.253 15.1669 182.48 15.5002 182.706C15.8469 182.92 16.2336 183.12 16.6602 183.306C17.1002 183.493 17.5736 183.646 18.0802 183.766C18.5869 183.873 19.1069 183.926 19.6402 183.926C20.6536 183.926 21.4402 183.746 22.0002 183.386C22.5602 183.013 22.8402 182.473 22.8402 181.766C22.8402 181.233 22.6802 180.806 22.3602 180.486C22.0536 180.166 21.5936 179.9 20.9802 179.686C20.3669 179.473 19.6202 179.26 18.7402 179.046C17.7802 178.806 16.9736 178.546 16.3202 178.266C15.6669 177.973 15.1736 177.593 14.8402 177.126C14.5202 176.66 14.3602 176.053 14.3602 175.306C14.3602 174.4 14.5802 173.633 15.0202 173.006C15.4602 172.38 16.0669 171.906 16.8402 171.586C17.6136 171.266 18.4869 171.106 19.4602 171.106C20.1002 171.106 20.6936 171.173 21.2402 171.306C21.8002 171.44 22.3202 171.626 22.8002 171.866C23.2802 172.106 23.7202 172.393 24.1202 172.726L23.2802 174.186ZM36.7677 183.806V185.406H27.1277V171.206H36.5877V172.806H28.9277V177.406H35.5877V178.906H28.9277V183.806H36.7677ZM41.0371 174.526V185.406H39.2371V171.206H40.7571L49.4371 182.306V171.226H51.2371V185.406H49.5971L41.0371 174.526ZM54.6277 185.406V171.206H59.5477C61.0677 171.206 62.3344 171.526 63.3477 172.166C64.3744 172.793 65.1411 173.646 65.6477 174.726C66.1544 175.793 66.4077 176.98 66.4077 178.286C66.4077 179.726 66.1277 180.98 65.5677 182.046C65.0077 183.113 64.2144 183.94 63.1877 184.526C62.1611 185.113 60.9477 185.406 59.5477 185.406H54.6277ZM64.5877 178.286C64.5877 177.22 64.3877 176.273 63.9877 175.446C63.6011 174.62 63.0344 173.973 62.2877 173.506C61.5411 173.04 60.6277 172.806 59.5477 172.806H56.4277V183.806H59.5477C60.6411 183.806 61.5611 183.566 62.3077 183.086C63.0544 182.593 63.6211 181.933 64.0077 181.106C64.3944 180.266 64.5877 179.326 64.5877 178.286ZM74.0027 185.406V171.206H83.3827V172.806H75.8027V177.546H82.1827V179.046H75.8027V185.406H74.0027ZM85.6629 185.406V171.206H87.4629V185.406H85.6629ZM90.8582 185.406V171.206H92.6582V183.806H100.578V185.406H90.8582ZM112.178 183.806V185.406H102.538V171.206H111.998V172.806H104.338V177.406H110.998V178.906H104.338V183.806H112.178ZM124.203 171.286H125.903L127.783 176.226L129.683 171.286H131.383L128.923 177.466L131.363 183.326L136.163 171.206H138.123L132.183 185.406H130.623L127.803 178.706L124.963 185.406H123.403L117.483 171.206H119.423L124.243 183.326L126.663 177.466L124.203 171.286ZM139.979 185.406V171.206H141.779V185.406H139.979ZM155.415 172.806H150.515V185.406H148.715V172.806H143.815V171.206H155.415V172.806ZM168.88 171.206V185.406H167.08V178.946H159.26V185.406H157.46V171.206H159.26V177.346H167.08V171.206H168.88ZM186.977 172.806H182.077V185.406H180.277V172.806H175.377V171.206H186.977V172.806ZM189.022 185.406V171.206H195.102C195.729 171.206 196.302 171.34 196.822 171.606C197.342 171.86 197.796 172.206 198.182 172.646C198.569 173.073 198.869 173.56 199.082 174.106C199.296 174.64 199.402 175.186 199.402 175.746C199.402 176.4 199.276 177.02 199.022 177.606C198.782 178.193 198.436 178.693 197.982 179.106C197.542 179.52 197.022 179.806 196.422 179.966L199.862 185.406H197.822L194.582 180.306H190.822V185.406H189.022ZM190.822 178.706H195.122C195.616 178.706 196.042 178.573 196.402 178.306C196.776 178.026 197.062 177.66 197.262 177.206C197.476 176.753 197.582 176.266 197.582 175.746C197.582 175.213 197.462 174.726 197.222 174.286C196.982 173.833 196.669 173.473 196.282 173.206C195.896 172.94 195.469 172.806 195.002 172.806H190.822V178.706ZM206.487 171.206H208.007L213.807 185.406H211.887L210.207 181.246H204.247L202.587 185.406H200.667L206.487 171.206ZM209.807 179.846L207.247 173.286L204.607 179.846H209.807ZM215.702 185.406V171.206H217.502V185.406H215.702ZM222.697 174.526V185.406H220.897V171.206H222.417L231.097 182.306V171.226H232.897V185.406H231.257L222.697 174.526ZM236.288 185.406V171.206H238.088V185.406H236.288ZM243.283 174.526V185.406H241.483V171.206H243.003L251.683 182.306V171.226H253.483V185.406H251.843L243.283 174.526ZM262.574 185.506C261.64 185.506 260.767 185.306 259.954 184.906C259.154 184.493 258.454 183.946 257.854 183.266C257.254 182.573 256.787 181.8 256.454 180.946C256.12 180.08 255.954 179.186 255.954 178.266C255.954 177.306 256.12 176.4 256.454 175.546C256.787 174.68 257.247 173.913 257.834 173.246C258.434 172.58 259.134 172.06 259.934 171.686C260.747 171.3 261.627 171.106 262.574 171.106C263.947 171.106 265.08 171.393 265.974 171.966C266.867 172.54 267.54 173.286 267.994 174.206L266.614 175.166C266.2 174.34 265.634 173.726 264.914 173.326C264.194 172.926 263.4 172.726 262.534 172.726C261.814 172.726 261.16 172.88 260.574 173.186C259.987 173.493 259.48 173.913 259.054 174.446C258.64 174.966 258.32 175.56 258.094 176.226C257.88 176.893 257.774 177.586 257.774 178.306C257.774 179.066 257.894 179.786 258.134 180.466C258.387 181.133 258.74 181.726 259.194 182.246C259.647 182.753 260.174 183.153 260.774 183.446C261.374 183.74 262.02 183.886 262.714 183.886C263.527 183.886 264.3 183.68 265.034 183.266C265.767 182.853 266.46 182.22 267.114 181.366V183.226C265.834 184.746 264.32 185.506 262.574 185.506ZM266.894 179.686H263.834V178.326H268.414V185.406H266.894V179.686ZM276.21 185.406V171.206H281.13C282.65 171.206 283.916 171.526 284.93 172.166C285.956 172.793 286.723 173.646 287.23 174.726C287.736 175.793 287.99 176.98 287.99 178.286C287.99 179.726 287.71 180.98 287.15 182.046C286.59 183.113 285.796 183.94 284.77 184.526C283.743 185.113 282.53 185.406 281.13 185.406H276.21ZM286.17 178.286C286.17 177.22 285.97 176.273 285.57 175.446C285.183 174.62 284.616 173.973 283.87 173.506C283.123 173.04 282.21 172.806 281.13 172.806H278.01V183.806H281.13C282.223 183.806 283.143 183.566 283.89 183.086C284.636 182.593 285.203 181.933 285.59 181.106C285.976 180.266 286.17 179.326 286.17 178.286ZM294.338 171.206H295.858L301.658 185.406H299.738L298.058 181.246H292.098L290.438 185.406H288.518L294.338 171.206ZM297.658 179.846L295.098 173.286L292.458 179.846H297.658ZM312.446 172.806H307.546V185.406H305.746V172.806H300.846V171.206H312.446V172.806ZM317.463 171.206H318.983L324.783 185.406H322.863L321.183 181.246H315.223L313.563 185.406H311.643L317.463 171.206ZM320.783 179.846L318.223 173.286L315.583 179.846H320.783ZM334.823 174.186C334.663 174 334.45 173.82 334.183 173.646C333.917 173.473 333.617 173.32 333.283 173.186C332.95 173.04 332.583 172.926 332.183 172.846C331.797 172.753 331.39 172.706 330.963 172.706C329.87 172.706 329.063 172.913 328.543 173.326C328.023 173.74 327.763 174.306 327.763 175.026C327.763 175.533 327.897 175.933 328.163 176.226C328.43 176.52 328.837 176.76 329.383 176.946C329.943 177.133 330.65 177.326 331.503 177.526C332.49 177.74 333.343 178 334.063 178.306C334.783 178.613 335.337 179.026 335.723 179.546C336.11 180.053 336.303 180.733 336.303 181.586C336.303 182.266 336.17 182.86 335.903 183.366C335.65 183.86 335.29 184.273 334.823 184.606C334.357 184.926 333.81 185.166 333.183 185.326C332.557 185.473 331.877 185.546 331.143 185.546C330.423 185.546 329.717 185.473 329.023 185.326C328.343 185.166 327.697 184.94 327.083 184.646C326.47 184.353 325.897 183.986 325.363 183.546L326.223 182.026C326.437 182.253 326.71 182.48 327.043 182.706C327.39 182.92 327.777 183.12 328.203 183.306C328.643 183.493 329.117 183.646 329.623 183.766C330.13 183.873 330.65 183.926 331.183 183.926C332.197 183.926 332.983 183.746 333.543 183.386C334.103 183.013 334.383 182.473 334.383 181.766C334.383 181.233 334.223 180.806 333.903 180.486C333.597 180.166 333.137 179.9 332.523 179.686C331.91 179.473 331.163 179.26 330.283 179.046C329.323 178.806 328.517 178.546 327.863 178.266C327.21 177.973 326.717 177.593 326.383 177.126C326.063 176.66 325.903 176.053 325.903 175.306C325.903 174.4 326.123 173.633 326.563 173.006C327.003 172.38 327.61 171.906 328.383 171.586C329.157 171.266 330.03 171.106 331.003 171.106C331.643 171.106 332.237 171.173 332.783 171.306C333.343 171.44 333.863 171.626 334.343 171.866C334.823 172.106 335.263 172.393 335.663 172.726L334.823 174.186ZM348.311 183.806V185.406H338.671V171.206H348.131V172.806H340.471V177.406H347.131V178.906H340.471V183.806H348.311ZM361.02 172.806H356.12V185.406H354.32V172.806H349.42V171.206H361.02V172.806ZM37.7466 194.206H39.2666L45.0666 208.406H43.1466L41.4666 204.246H35.5066L33.8466 208.406H31.9266L37.7466 194.206ZM41.0666 202.846L38.5066 196.286L35.8666 202.846H41.0666ZM48.7617 197.526V208.406H46.9617V194.206H48.4817L57.1617 205.306V194.226H58.9617V208.406H57.3217L48.7617 197.526ZM62.3523 208.406V194.206H67.2723C68.7923 194.206 70.059 194.526 71.0723 195.166C72.099 195.793 72.8657 196.646 73.3723 197.726C73.879 198.793 74.1323 199.98 74.1323 201.286C74.1323 202.726 73.8523 203.98 73.2923 205.046C72.7323 206.113 71.939 206.94 70.9123 207.526C69.8857 208.113 68.6723 208.406 67.2723 208.406H62.3523ZM72.3123 201.286C72.3123 200.22 72.1123 199.273 71.7123 198.446C71.3257 197.62 70.759 196.973 70.0123 196.506C69.2657 196.04 68.3523 195.806 67.2723 195.806H64.1523V206.806H67.2723C68.3657 206.806 69.2857 206.566 70.0323 206.086C70.779 205.593 71.3457 204.933 71.7323 204.106C72.119 203.266 72.3123 202.326 72.3123 201.286ZM80.8073 201.206C80.8073 200.34 80.954 199.493 81.2473 198.666C81.554 197.826 81.994 197.066 82.5673 196.386C83.154 195.693 83.8673 195.146 84.7073 194.746C85.5473 194.333 86.5007 194.126 87.5673 194.126C88.834 194.126 89.9207 194.42 90.8273 195.006C91.734 195.58 92.4073 196.32 92.8473 197.226L91.4273 198.146C91.1473 197.546 90.7873 197.073 90.3473 196.726C89.9207 196.366 89.454 196.113 88.9473 195.966C88.454 195.82 87.9673 195.746 87.4873 195.746C86.7007 195.746 86.0007 195.906 85.3873 196.226C84.7873 196.546 84.2807 196.973 83.8673 197.506C83.454 198.04 83.1407 198.64 82.9273 199.306C82.7273 199.96 82.6273 200.62 82.6273 201.286C82.6273 202.02 82.7473 202.726 82.9873 203.406C83.2407 204.086 83.5873 204.686 84.0273 205.206C84.4673 205.726 84.9873 206.14 85.5873 206.446C86.1873 206.753 86.8407 206.906 87.5473 206.906C88.0407 206.906 88.5473 206.82 89.0673 206.646C89.5873 206.473 90.074 206.206 90.5273 205.846C90.9807 205.473 91.3407 204.993 91.6073 204.406L93.1073 205.226C92.814 205.933 92.3607 206.533 91.7473 207.026C91.134 207.52 90.4473 207.893 89.6873 208.146C88.9407 208.4 88.2007 208.526 87.4673 208.526C86.494 208.526 85.6007 208.32 84.7873 207.906C83.974 207.48 83.2673 206.92 82.6673 206.226C82.0807 205.52 81.6207 204.733 81.2873 203.866C80.9673 202.986 80.8073 202.1 80.8073 201.206ZM106.78 194.206V208.406H104.98V201.946H97.1602V208.406H95.3602V194.206H97.1602V200.346H104.98V194.206H106.78ZM115.944 208.506C114.944 208.506 114.038 208.306 113.224 207.906C112.411 207.506 111.704 206.966 111.104 206.286C110.518 205.593 110.064 204.82 109.744 203.966C109.424 203.1 109.264 202.213 109.264 201.306C109.264 200.36 109.431 199.46 109.764 198.606C110.111 197.74 110.584 196.973 111.184 196.306C111.798 195.626 112.511 195.093 113.324 194.706C114.138 194.306 115.024 194.106 115.984 194.106C116.984 194.106 117.891 194.313 118.704 194.726C119.518 195.14 120.218 195.693 120.804 196.386C121.391 197.08 121.844 197.853 122.164 198.706C122.484 199.56 122.644 200.433 122.644 201.326C122.644 202.273 122.478 203.18 122.144 204.046C121.811 204.9 121.338 205.666 120.724 206.346C120.124 207.013 119.418 207.54 118.604 207.926C117.791 208.313 116.904 208.506 115.944 208.506ZM111.084 201.306C111.084 202.026 111.198 202.726 111.424 203.406C111.664 204.073 111.998 204.666 112.424 205.186C112.851 205.706 113.364 206.12 113.964 206.426C114.564 206.733 115.231 206.886 115.964 206.886C116.724 206.886 117.404 206.726 118.004 206.406C118.604 206.086 119.111 205.66 119.524 205.126C119.951 204.593 120.271 203.993 120.484 203.326C120.711 202.66 120.824 201.986 120.824 201.306C120.824 200.586 120.704 199.893 120.464 199.226C120.238 198.56 119.904 197.966 119.464 197.446C119.038 196.913 118.524 196.5 117.924 196.206C117.338 195.9 116.684 195.746 115.964 195.746C115.204 195.746 114.524 195.906 113.924 196.226C113.324 196.533 112.811 196.953 112.384 197.486C111.971 198.02 111.651 198.62 111.424 199.286C111.198 199.94 111.084 200.613 111.084 201.306ZM130.905 208.506C129.905 208.506 128.999 208.306 128.185 207.906C127.372 207.506 126.665 206.966 126.065 206.286C125.479 205.593 125.025 204.82 124.705 203.966C124.385 203.1 124.225 202.213 124.225 201.306C124.225 200.36 124.392 199.46 124.725 198.606C125.072 197.74 125.545 196.973 126.145 196.306C126.759 195.626 127.472 195.093 128.285 194.706C129.099 194.306 129.985 194.106 130.945 194.106C131.945 194.106 132.852 194.313 133.665 194.726C134.479 195.14 135.179 195.693 135.765 196.386C136.352 197.08 136.805 197.853 137.125 198.706C137.445 199.56 137.605 200.433 137.605 201.326C137.605 202.273 137.439 203.18 137.105 204.046C136.772 204.9 136.299 205.666 135.685 206.346C135.085 207.013 134.379 207.54 133.565 207.926C132.752 208.313 131.865 208.506 130.905 208.506ZM126.045 201.306C126.045 202.026 126.159 202.726 126.385 203.406C126.625 204.073 126.959 204.666 127.385 205.186C127.812 205.706 128.325 206.12 128.925 206.426C129.525 206.733 130.192 206.886 130.925 206.886C131.685 206.886 132.365 206.726 132.965 206.406C133.565 206.086 134.072 205.66 134.485 205.126C134.912 204.593 135.232 203.993 135.445 203.326C135.672 202.66 135.785 201.986 135.785 201.306C135.785 200.586 135.665 199.893 135.425 199.226C135.199 198.56 134.865 197.966 134.425 197.446C133.999 196.913 133.485 196.5 132.885 196.206C132.299 195.9 131.645 195.746 130.925 195.746C130.165 195.746 129.485 195.906 128.885 196.226C128.285 196.533 127.772 196.953 127.345 197.486C126.932 198.02 126.612 198.62 126.385 199.286C126.159 199.94 126.045 200.613 126.045 201.306ZM148.446 197.186C148.286 197 148.073 196.82 147.806 196.646C147.54 196.473 147.24 196.32 146.906 196.186C146.573 196.04 146.206 195.926 145.806 195.846C145.42 195.753 145.013 195.706 144.586 195.706C143.493 195.706 142.686 195.913 142.166 196.326C141.646 196.74 141.386 197.306 141.386 198.026C141.386 198.533 141.52 198.933 141.786 199.226C142.053 199.52 142.46 199.76 143.006 199.946C143.566 200.133 144.273 200.326 145.126 200.526C146.113 200.74 146.966 201 147.686 201.306C148.406 201.613 148.96 202.026 149.346 202.546C149.733 203.053 149.926 203.733 149.926 204.586C149.926 205.266 149.793 205.86 149.526 206.366C149.273 206.86 148.913 207.273 148.446 207.606C147.98 207.926 147.433 208.166 146.806 208.326C146.18 208.473 145.5 208.546 144.766 208.546C144.046 208.546 143.34 208.473 142.646 208.326C141.966 208.166 141.32 207.94 140.706 207.646C140.093 207.353 139.52 206.986 138.986 206.546L139.846 205.026C140.06 205.253 140.333 205.48 140.666 205.706C141.013 205.92 141.4 206.12 141.826 206.306C142.266 206.493 142.74 206.646 143.246 206.766C143.753 206.873 144.273 206.926 144.806 206.926C145.82 206.926 146.606 206.746 147.166 206.386C147.726 206.013 148.006 205.473 148.006 204.766C148.006 204.233 147.846 203.806 147.526 203.486C147.22 203.166 146.76 202.9 146.146 202.686C145.533 202.473 144.786 202.26 143.906 202.046C142.946 201.806 142.14 201.546 141.486 201.266C140.833 200.973 140.34 200.593 140.006 200.126C139.686 199.66 139.526 199.053 139.526 198.306C139.526 197.4 139.746 196.633 140.186 196.006C140.626 195.38 141.233 194.906 142.006 194.586C142.78 194.266 143.653 194.106 144.626 194.106C145.266 194.106 145.86 194.173 146.406 194.306C146.966 194.44 147.486 194.626 147.966 194.866C148.446 195.106 148.886 195.393 149.286 195.726L148.446 197.186ZM161.934 206.806V208.406H152.294V194.206H161.754V195.806H154.094V200.406H160.754V201.906H154.094V206.806H161.934ZM179.096 195.806H174.196V208.406H172.396V195.806H167.496V194.206H179.096V195.806ZM184.114 194.206H185.634L191.434 208.406H189.514L187.834 204.246H181.874L180.214 208.406H178.294L184.114 194.206ZM187.434 202.846L184.874 196.286L182.234 202.846H187.434ZM193.329 208.406V194.206H199.409C200.036 194.206 200.609 194.34 201.129 194.606C201.649 194.86 202.102 195.206 202.489 195.646C202.876 196.073 203.176 196.56 203.389 197.106C203.602 197.64 203.709 198.186 203.709 198.746C203.709 199.4 203.582 200.02 203.329 200.606C203.089 201.193 202.742 201.693 202.289 202.106C201.849 202.52 201.329 202.806 200.729 202.966L204.169 208.406H202.129L198.889 203.306H195.129V208.406H193.329ZM195.129 201.706H199.429C199.922 201.706 200.349 201.573 200.709 201.306C201.082 201.026 201.369 200.66 201.569 200.206C201.782 199.753 201.889 199.266 201.889 198.746C201.889 198.213 201.769 197.726 201.529 197.286C201.289 196.833 200.976 196.473 200.589 196.206C200.202 195.94 199.776 195.806 199.309 195.806H195.129V201.706ZM212.173 208.506C211.24 208.506 210.367 208.306 209.553 207.906C208.753 207.493 208.053 206.946 207.453 206.266C206.853 205.573 206.387 204.8 206.053 203.946C205.72 203.08 205.553 202.186 205.553 201.266C205.553 200.306 205.72 199.4 206.053 198.546C206.387 197.68 206.847 196.913 207.433 196.246C208.033 195.58 208.733 195.06 209.533 194.686C210.347 194.3 211.227 194.106 212.173 194.106C213.547 194.106 214.68 194.393 215.573 194.966C216.467 195.54 217.14 196.286 217.593 197.206L216.213 198.166C215.8 197.34 215.233 196.726 214.513 196.326C213.793 195.926 213 195.726 212.133 195.726C211.413 195.726 210.76 195.88 210.173 196.186C209.587 196.493 209.08 196.913 208.653 197.446C208.24 197.966 207.92 198.56 207.693 199.226C207.48 199.893 207.373 200.586 207.373 201.306C207.373 202.066 207.493 202.786 207.733 203.466C207.987 204.133 208.34 204.726 208.793 205.246C209.247 205.753 209.773 206.153 210.373 206.446C210.973 206.74 211.62 206.886 212.313 206.886C213.127 206.886 213.9 206.68 214.633 206.266C215.367 205.853 216.06 205.22 216.713 204.366V206.226C215.433 207.746 213.92 208.506 212.173 208.506ZM216.493 202.686H213.433V201.326H218.013V208.406H216.493V202.686ZM230.391 206.806V208.406H220.751V194.206H230.211V195.806H222.551V200.406H229.211V201.906H222.551V206.806H230.391ZM243.1 195.806H238.2V208.406H236.4V195.806H231.5V194.206H243.1V195.806ZM249.315 194.206L254.015 206.146L258.695 194.206H260.595L254.835 208.406H253.195L247.415 194.206H249.315ZM265.676 194.206H267.196L272.996 208.406H271.076L269.396 204.246H263.436L261.776 208.406H259.856L265.676 194.206ZM268.996 202.846L266.436 196.286L263.796 202.846H268.996ZM274.891 208.406V194.206H280.971C281.598 194.206 282.171 194.34 282.691 194.606C283.211 194.86 283.665 195.206 284.051 195.646C284.438 196.073 284.738 196.56 284.951 197.106C285.165 197.64 285.271 198.186 285.271 198.746C285.271 199.4 285.145 200.02 284.891 200.606C284.651 201.193 284.305 201.693 283.851 202.106C283.411 202.52 282.891 202.806 282.291 202.966L285.731 208.406H283.691L280.451 203.306H276.691V208.406H274.891ZM276.691 201.706H280.991C281.485 201.706 281.911 201.573 282.271 201.306C282.645 201.026 282.931 200.66 283.131 200.206C283.345 199.753 283.451 199.266 283.451 198.746C283.451 198.213 283.331 197.726 283.091 197.286C282.851 196.833 282.538 196.473 282.151 196.206C281.765 195.94 281.338 195.806 280.871 195.806H276.691V201.706ZM288.036 208.406V194.206H289.836V208.406H288.036ZM297.551 194.206H299.071L304.871 208.406H302.951L301.271 204.246H295.311L293.651 208.406H291.731L297.551 194.206ZM300.871 202.846L298.311 196.286L295.671 202.846H300.871ZM317.666 204.746C317.666 205.48 317.48 206.12 317.106 206.666C316.733 207.213 316.226 207.64 315.586 207.946C314.96 208.253 314.266 208.406 313.506 208.406H306.766V194.206H313.826C314.493 194.206 315.066 194.386 315.546 194.746C316.04 195.093 316.413 195.546 316.666 196.106C316.933 196.653 317.066 197.226 317.066 197.826C317.066 198.52 316.886 199.173 316.526 199.786C316.18 200.386 315.68 200.833 315.026 201.126C315.84 201.366 316.48 201.813 316.946 202.466C317.426 203.106 317.666 203.866 317.666 204.746ZM315.846 204.426C315.846 203.986 315.746 203.58 315.546 203.206C315.36 202.833 315.1 202.533 314.766 202.306C314.446 202.08 314.073 201.966 313.646 201.966H308.566V206.846H313.506C313.946 206.846 314.34 206.733 314.686 206.506C315.046 206.28 315.326 205.986 315.526 205.626C315.74 205.253 315.846 204.853 315.846 204.426ZM308.566 195.766V200.506H313.086C313.513 200.506 313.886 200.4 314.206 200.186C314.54 199.973 314.8 199.686 314.986 199.326C315.186 198.966 315.286 198.573 315.286 198.146C315.286 197.693 315.193 197.293 315.006 196.946C314.833 196.586 314.586 196.3 314.266 196.086C313.96 195.873 313.606 195.766 313.206 195.766H308.566ZM320.184 208.406V194.206H321.984V206.806H329.904V208.406H320.184ZM341.504 206.806V208.406H331.864V194.206H341.324V195.806H333.664V200.406H340.324V201.906H333.664V206.806H341.504Z" fill="#0B1B23"/>
<rect y="433.221" width="375" height="90" rx="10" fill="#F5F5F5"/>
<path d="M29.1108 462.321C27.9774 462.321 27.0241 462.127 26.2508 461.741C25.4774 461.341 24.8574 460.807 24.3908 460.141C23.9241 459.461 23.5841 458.694 23.3708 457.841C23.1574 456.987 23.0508 456.107 23.0508 455.201V448.021H24.8508V455.201C24.8508 455.894 24.9174 456.574 25.0508 457.241C25.1974 457.894 25.4308 458.481 25.7508 459.001C26.0708 459.521 26.5041 459.934 27.0508 460.241C27.5974 460.547 28.2774 460.701 29.0908 460.701C29.9174 460.701 30.6041 460.547 31.1508 460.241C31.6974 459.921 32.1308 459.501 32.4508 458.981C32.7708 458.447 32.9974 457.854 33.1308 457.201C33.2774 456.547 33.3508 455.881 33.3508 455.201V448.021H35.1508V455.201C35.1508 456.161 35.0374 457.074 34.8108 457.941C34.5974 458.794 34.2508 459.547 33.7708 460.201C33.2908 460.854 32.6641 461.374 31.8908 461.761C31.1308 462.134 30.2041 462.321 29.1108 462.321ZM46.6884 451.001C46.5284 450.814 46.3151 450.634 46.0484 450.461C45.7818 450.287 45.4818 450.134 45.1484 450.001C44.8151 449.854 44.4484 449.741 44.0484 449.661C43.6618 449.567 43.2551 449.521 42.8284 449.521C41.7351 449.521 40.9284 449.727 40.4084 450.141C39.8884 450.554 39.6284 451.121 39.6284 451.841C39.6284 452.347 39.7618 452.747 40.0284 453.041C40.2951 453.334 40.7018 453.574 41.2484 453.761C41.8084 453.947 42.5151 454.141 43.3684 454.341C44.3551 454.554 45.2084 454.814 45.9284 455.121C46.6484 455.427 47.2018 455.841 47.5884 456.361C47.9751 456.867 48.1684 457.547 48.1684 458.401C48.1684 459.081 48.0351 459.674 47.7684 460.181C47.5151 460.674 47.1551 461.087 46.6884 461.421C46.2218 461.741 45.6751 461.981 45.0484 462.141C44.4218 462.287 43.7418 462.361 43.0084 462.361C42.2884 462.361 41.5818 462.287 40.8884 462.141C40.2084 461.981 39.5618 461.754 38.9484 461.461C38.3351 461.167 37.7618 460.801 37.2284 460.361L38.0884 458.841C38.3018 459.067 38.5751 459.294 38.9084 459.521C39.2551 459.734 39.6418 459.934 40.0684 460.121C40.5084 460.307 40.9818 460.461 41.4884 460.581C41.9951 460.687 42.5151 460.741 43.0484 460.741C44.0618 460.741 44.8484 460.561 45.4084 460.201C45.9684 459.827 46.2484 459.287 46.2484 458.581C46.2484 458.047 46.0884 457.621 45.7684 457.301C45.4618 456.981 45.0018 456.714 44.3884 456.501C43.7751 456.287 43.0284 456.074 42.1484 455.861C41.1884 455.621 40.3818 455.361 39.7284 455.081C39.0751 454.787 38.5818 454.407 38.2484 453.941C37.9284 453.474 37.7684 452.867 37.7684 452.121C37.7684 451.214 37.9884 450.447 38.4284 449.821C38.8684 449.194 39.4751 448.721 40.2484 448.401C41.0218 448.081 41.8951 447.921 42.8684 447.921C43.5084 447.921 44.1018 447.987 44.6484 448.121C45.2084 448.254 45.7284 448.441 46.2084 448.681C46.6884 448.921 47.1284 449.207 47.5284 449.541L46.6884 451.001ZM60.1759 460.621V462.221H50.5359V448.021H59.9959V449.621H52.3359V454.221H58.9959V455.721H52.3359V460.621H60.1759ZM67.5213 448.021L71.8213 455.421L76.1613 448.021H78.1213L72.7213 457.041V462.221H70.9213V457.001L65.5413 448.021H67.5213ZM84.9288 462.321C83.9288 462.321 83.0221 462.121 82.2088 461.721C81.3954 461.321 80.6888 460.781 80.0888 460.101C79.5021 459.407 79.0488 458.634 78.7288 457.781C78.4088 456.914 78.2488 456.027 78.2488 455.121C78.2488 454.174 78.4154 453.274 78.7488 452.421C79.0954 451.554 79.5688 450.787 80.1688 450.121C80.7821 449.441 81.4954 448.907 82.3088 448.521C83.1221 448.121 84.0088 447.921 84.9688 447.921C85.9688 447.921 86.8754 448.127 87.6888 448.541C88.5021 448.954 89.2021 449.507 89.7888 450.201C90.3754 450.894 90.8288 451.667 91.1488 452.521C91.4688 453.374 91.6288 454.247 91.6288 455.141C91.6288 456.087 91.4621 456.994 91.1288 457.861C90.7954 458.714 90.3221 459.481 89.7088 460.161C89.1088 460.827 88.4021 461.354 87.5888 461.741C86.7754 462.127 85.8888 462.321 84.9288 462.321ZM80.0688 455.121C80.0688 455.841 80.1821 456.541 80.4087 457.221C80.6488 457.887 80.9821 458.481 81.4088 459.001C81.8354 459.521 82.3488 459.934 82.9488 460.241C83.5488 460.547 84.2154 460.701 84.9488 460.701C85.7088 460.701 86.3888 460.541 86.9888 460.221C87.5888 459.901 88.0954 459.474 88.5088 458.941C88.9354 458.407 89.2554 457.807 89.4688 457.141C89.6954 456.474 89.8088 455.801 89.8088 455.121C89.8088 454.401 89.6888 453.707 89.4488 453.041C89.2221 452.374 88.8888 451.781 88.4488 451.261C88.0221 450.727 87.5088 450.314 86.9088 450.021C86.3221 449.714 85.6688 449.561 84.9488 449.561C84.1888 449.561 83.5088 449.721 82.9088 450.041C82.3088 450.347 81.7954 450.767 81.3688 451.301C80.9554 451.834 80.6354 452.434 80.4087 453.101C80.1821 453.754 80.0688 454.427 80.0688 455.121ZM99.9897 462.321C98.8564 462.321 97.903 462.127 97.1297 461.741C96.3564 461.341 95.7364 460.807 95.2697 460.141C94.803 459.461 94.463 458.694 94.2497 457.841C94.0364 456.987 93.9297 456.107 93.9297 455.201V448.021H95.7297V455.201C95.7297 455.894 95.7964 456.574 95.9297 457.241C96.0764 457.894 96.3097 458.481 96.6297 459.001C96.9497 459.521 97.383 459.934 97.9297 460.241C98.4764 460.547 99.1564 460.701 99.9697 460.701C100.796 460.701 101.483 460.547 102.03 460.241C102.576 459.921 103.01 459.501 103.33 458.981C103.65 458.447 103.876 457.854 104.01 457.201C104.156 456.547 104.23 455.881 104.23 455.201V448.021H106.03V455.201C106.03 456.161 105.916 457.074 105.69 457.941C105.476 458.794 105.13 459.547 104.65 460.201C104.17 460.854 103.543 461.374 102.77 461.761C102.01 462.134 101.083 462.321 99.9897 462.321ZM109.227 462.221V448.021H115.307C115.934 448.021 116.507 448.154 117.027 448.421C117.547 448.674 118.001 449.021 118.387 449.461C118.774 449.887 119.074 450.374 119.287 450.921C119.501 451.454 119.607 452.001 119.607 452.561C119.607 453.214 119.481 453.834 119.227 454.421C118.987 455.007 118.641 455.507 118.187 455.921C117.747 456.334 117.227 456.621 116.627 456.781L120.067 462.221H118.027L114.787 457.121H111.027V462.221H109.227ZM111.027 455.521H115.327C115.821 455.521 116.247 455.387 116.607 455.121C116.981 454.841 117.267 454.474 117.467 454.021C117.681 453.567 117.787 453.081 117.787 452.561C117.787 452.027 117.667 451.541 117.427 451.101C117.187 450.647 116.874 450.287 116.487 450.021C116.101 449.754 115.674 449.621 115.207 449.621H111.027V455.521ZM139.71 462.221V451.381L135.03 459.721H133.93L129.23 451.381V462.221H127.43V448.021H129.33L134.47 457.241L139.63 448.021H141.51V462.221H139.71ZM150.671 462.321C149.671 462.321 148.764 462.121 147.951 461.721C147.138 461.321 146.431 460.781 145.831 460.101C145.244 459.407 144.791 458.634 144.471 457.781C144.151 456.914 143.991 456.027 143.991 455.121C143.991 454.174 144.158 453.274 144.491 452.421C144.838 451.554 145.311 450.787 145.911 450.121C146.524 449.441 147.238 448.907 148.051 448.521C148.864 448.121 149.751 447.921 150.711 447.921C151.711 447.921 152.618 448.127 153.431 448.541C154.244 448.954 154.944 449.507 155.531 450.201C156.118 450.894 156.571 451.667 156.891 452.521C157.211 453.374 157.371 454.247 157.371 455.141C157.371 456.087 157.204 456.994 156.871 457.861C156.538 458.714 156.064 459.481 155.451 460.161C154.851 460.827 154.144 461.354 153.331 461.741C152.518 462.127 151.631 462.321 150.671 462.321ZM145.811 455.121C145.811 455.841 145.924 456.541 146.151 457.221C146.391 457.887 146.724 458.481 147.151 459.001C147.578 459.521 148.091 459.934 148.691 460.241C149.291 460.547 149.958 460.701 150.691 460.701C151.451 460.701 152.131 460.541 152.731 460.221C153.331 459.901 153.838 459.474 154.251 458.941C154.678 458.407 154.998 457.807 155.211 457.141C155.438 456.474 155.551 455.801 155.551 455.121C155.551 454.401 155.431 453.707 155.191 453.041C154.964 452.374 154.631 451.781 154.191 451.261C153.764 450.727 153.251 450.314 152.651 450.021C152.064 449.714 151.411 449.561 150.691 449.561C149.931 449.561 149.251 449.721 148.651 450.041C148.051 450.347 147.538 450.767 147.111 451.301C146.698 451.834 146.378 452.434 146.151 453.101C145.924 453.754 145.811 454.427 145.811 455.121ZM159.872 462.221V448.021H164.792C166.312 448.021 167.579 448.341 168.592 448.981C169.619 449.607 170.385 450.461 170.892 451.541C171.399 452.607 171.652 453.794 171.652 455.101C171.652 456.541 171.372 457.794 170.812 458.861C170.252 459.927 169.459 460.754 168.432 461.341C167.405 461.927 166.192 462.221 164.792 462.221H159.872ZM169.832 455.101C169.832 454.034 169.632 453.087 169.232 452.261C168.845 451.434 168.279 450.787 167.532 450.321C166.785 449.854 165.872 449.621 164.792 449.621H161.672V460.621H164.792C165.885 460.621 166.805 460.381 167.552 459.901C168.299 459.407 168.865 458.747 169.252 457.921C169.639 457.081 169.832 456.141 169.832 455.101ZM183.828 460.621V462.221H174.188V448.021H183.648V449.621H175.988V454.221H182.648V455.721H175.988V460.621H183.828ZM186.298 462.221V448.021H188.098V460.621H196.018V462.221H186.298ZM202.43 462.221V448.021H211.81V449.621H204.23V454.361H210.61V455.861H204.23V462.221H202.43ZM214.091 462.221V448.021H220.171C220.797 448.021 221.371 448.154 221.891 448.421C222.411 448.674 222.864 449.021 223.251 449.461C223.637 449.887 223.937 450.374 224.151 450.921C224.364 451.454 224.471 452.001 224.471 452.561C224.471 453.214 224.344 453.834 224.091 454.421C223.851 455.007 223.504 455.507 223.051 455.921C222.611 456.334 222.091 456.621 221.491 456.781L224.931 462.221H222.891L219.651 457.121H215.891V462.221H214.091ZM215.891 455.521H220.191C220.684 455.521 221.111 455.387 221.471 455.121C221.844 454.841 222.131 454.474 222.331 454.021C222.544 453.567 222.651 453.081 222.651 452.561C222.651 452.027 222.531 451.541 222.291 451.101C222.051 450.647 221.737 450.287 221.351 450.021C220.964 449.754 220.537 449.621 220.071 449.621H215.891V455.521ZM232.995 462.321C231.995 462.321 231.088 462.121 230.275 461.721C229.462 461.321 228.755 460.781 228.155 460.101C227.568 459.407 227.115 458.634 226.795 457.781C226.475 456.914 226.315 456.027 226.315 455.121C226.315 454.174 226.482 453.274 226.815 452.421C227.162 451.554 227.635 450.787 228.235 450.121C228.848 449.441 229.562 448.907 230.375 448.521C231.188 448.121 232.075 447.921 233.035 447.921C234.035 447.921 234.942 448.127 235.755 448.541C236.568 448.954 237.268 449.507 237.855 450.201C238.442 450.894 238.895 451.667 239.215 452.521C239.535 453.374 239.695 454.247 239.695 455.141C239.695 456.087 239.528 456.994 239.195 457.861C238.862 458.714 238.388 459.481 237.775 460.161C237.175 460.827 236.468 461.354 235.655 461.741C234.842 462.127 233.955 462.321 232.995 462.321ZM228.135 455.121C228.135 455.841 228.248 456.541 228.475 457.221C228.715 457.887 229.048 458.481 229.475 459.001C229.902 459.521 230.415 459.934 231.015 460.241C231.615 460.547 232.282 460.701 233.015 460.701C233.775 460.701 234.455 460.541 235.055 460.221C235.655 459.901 236.162 459.474 236.575 458.941C237.002 458.407 237.322 457.807 237.535 457.141C237.762 456.474 237.875 455.801 237.875 455.121C237.875 454.401 237.755 453.707 237.515 453.041C237.288 452.374 236.955 451.781 236.515 451.261C236.088 450.727 235.575 450.314 234.975 450.021C234.388 449.714 233.735 449.561 233.015 449.561C232.255 449.561 231.575 449.721 230.975 450.041C230.375 450.347 229.862 450.767 229.435 451.301C229.022 451.834 228.702 452.434 228.475 453.101C228.248 453.754 228.135 454.427 228.135 455.121ZM254.476 462.221V451.381L249.796 459.721H248.696L243.996 451.381V462.221H242.196V448.021H244.096L249.236 457.241L254.396 448.021H256.276V462.221H254.476ZM274.37 449.621H269.47V462.221H267.67V449.621H262.77V448.021H274.37V449.621ZM287.835 448.021V462.221H286.035V455.761H278.215V462.221H276.415V448.021H278.215V454.161H286.035V448.021H287.835ZM300.879 460.621V462.221H291.239V448.021H300.699V449.621H293.039V454.221H299.699V455.721H293.039V460.621H300.879ZM308.407 462.221V448.021H310.207V460.621H318.127V462.221H308.407ZM320.087 462.221V448.021H321.887V462.221H320.087ZM333.622 451.001C333.462 450.814 333.249 450.634 332.982 450.461C332.715 450.287 332.415 450.134 332.082 450.001C331.749 449.854 331.382 449.741 330.982 449.661C330.595 449.567 330.189 449.521 329.762 449.521C328.669 449.521 327.862 449.727 327.342 450.141C326.822 450.554 326.562 451.121 326.562 451.841C326.562 452.347 326.695 452.747 326.962 453.041C327.229 453.334 327.635 453.574 328.182 453.761C328.742 453.947 329.449 454.141 330.302 454.341C331.289 454.554 332.142 454.814 332.862 455.121C333.582 455.427 334.135 455.841 334.522 456.361C334.909 456.867 335.102 457.547 335.102 458.401C335.102 459.081 334.969 459.674 334.702 460.181C334.449 460.674 334.089 461.087 333.622 461.421C333.155 461.741 332.609 461.981 331.982 462.141C331.355 462.287 330.675 462.361 329.942 462.361C329.222 462.361 328.515 462.287 327.822 462.141C327.142 461.981 326.495 461.754 325.882 461.461C325.269 461.167 324.695 460.801 324.162 460.361L325.022 458.841C325.235 459.067 325.509 459.294 325.842 459.521C326.189 459.734 326.575 459.934 327.002 460.121C327.442 460.307 327.915 460.461 328.422 460.581C328.929 460.687 329.449 460.741 329.982 460.741C330.995 460.741 331.782 460.561 332.342 460.201C332.902 459.827 333.182 459.287 333.182 458.581C333.182 458.047 333.022 457.621 332.702 457.301C332.395 456.981 331.935 456.714 331.322 456.501C330.709 456.287 329.962 456.074 329.082 455.861C328.122 455.621 327.315 455.361 326.662 455.081C326.009 454.787 325.515 454.407 325.182 453.941C324.862 453.474 324.702 452.867 324.702 452.121C324.702 451.214 324.922 450.447 325.362 449.821C325.802 449.194 326.409 448.721 327.182 448.401C327.955 448.081 328.829 447.921 329.802 447.921C330.442 447.921 331.035 447.987 331.582 448.121C332.142 448.254 332.662 448.441 333.142 448.681C333.622 448.921 334.062 449.207 334.462 449.541L333.622 451.001ZM347.71 449.621H342.81V462.221H341.01V449.621H336.11V448.021H347.71V449.621ZM53.9595 472.621H49.0595V485.221H47.2595V472.621H42.3595V471.021H53.9595V472.621ZM61.335 485.321C60.335 485.321 59.4283 485.121 58.615 484.721C57.8017 484.321 57.095 483.781 56.495 483.101C55.9083 482.407 55.455 481.634 55.135 480.781C54.815 479.914 54.655 479.027 54.655 478.121C54.655 477.174 54.8217 476.274 55.155 475.421C55.5017 474.554 55.975 473.787 56.575 473.121C57.1883 472.441 57.9017 471.907 58.715 471.521C59.5283 471.121 60.415 470.921 61.375 470.921C62.375 470.921 63.2817 471.127 64.095 471.541C64.9083 471.954 65.6083 472.507 66.195 473.201C66.7817 473.894 67.235 474.667 67.555 475.521C67.875 476.374 68.035 477.247 68.035 478.141C68.035 479.087 67.8683 479.994 67.535 480.861C67.2017 481.714 66.7283 482.481 66.115 483.161C65.515 483.827 64.8083 484.354 63.995 484.741C63.1817 485.127 62.295 485.321 61.335 485.321ZM56.475 478.121C56.475 478.841 56.5883 479.541 56.815 480.221C57.055 480.887 57.3883 481.481 57.815 482.001C58.2417 482.521 58.755 482.934 59.355 483.241C59.955 483.547 60.6217 483.701 61.355 483.701C62.115 483.701 62.795 483.541 63.395 483.221C63.995 482.901 64.5017 482.474 64.915 481.941C65.3417 481.407 65.6617 480.807 65.875 480.141C66.1017 479.474 66.215 478.801 66.215 478.121C66.215 477.401 66.095 476.707 65.855 476.041C65.6283 475.374 65.295 474.781 64.855 474.261C64.4283 473.727 63.915 473.314 63.315 473.021C62.7283 472.714 62.075 472.561 61.355 472.561C60.595 472.561 59.915 472.721 59.315 473.041C58.715 473.347 58.2017 473.767 57.775 474.301C57.3617 474.834 57.0417 475.434 56.815 476.101C56.5883 476.754 56.475 477.427 56.475 478.121ZM81.2945 485.321C80.3612 485.321 79.4879 485.121 78.6745 484.721C77.8745 484.307 77.1745 483.761 76.5745 483.081C75.9745 482.387 75.5079 481.614 75.1745 480.761C74.8412 479.894 74.6745 479.001 74.6745 478.081C74.6745 477.121 74.8412 476.214 75.1745 475.361C75.5079 474.494 75.9679 473.727 76.5545 473.061C77.1545 472.394 77.8545 471.874 78.6545 471.501C79.4679 471.114 80.3479 470.921 81.2945 470.921C82.6679 470.921 83.8012 471.207 84.6945 471.781C85.5879 472.354 86.2612 473.101 86.7145 474.021L85.3345 474.981C84.9212 474.154 84.3545 473.541 83.6345 473.141C82.9145 472.741 82.1212 472.541 81.2545 472.541C80.5345 472.541 79.8812 472.694 79.2945 473.001C78.7079 473.307 78.2012 473.727 77.7745 474.261C77.3612 474.781 77.0412 475.374 76.8145 476.041C76.6012 476.707 76.4945 477.401 76.4945 478.121C76.4945 478.881 76.6145 479.601 76.8545 480.281C77.1079 480.947 77.4612 481.541 77.9145 482.061C78.3679 482.567 78.8945 482.967 79.4945 483.261C80.0945 483.554 80.7412 483.701 81.4345 483.701C82.2479 483.701 83.0212 483.494 83.7545 483.081C84.4879 482.667 85.1812 482.034 85.8345 481.181V483.041C84.5545 484.561 83.0412 485.321 81.2945 485.321ZM85.6145 479.501H82.5545V478.141H87.1345V485.221H85.6145V479.501ZM99.5119 483.621V485.221H89.8719V471.021H99.3319V472.621H91.6719V477.221H98.3319V478.721H91.6719V483.621H99.5119ZM112.221 472.621H107.321V485.221H105.521V472.621H100.621V471.021H112.221V472.621ZM118.72 485.221V471.021H124.64C125.266 471.021 125.84 471.154 126.36 471.421C126.88 471.674 127.333 472.021 127.72 472.461C128.106 472.887 128.406 473.374 128.62 473.921C128.833 474.454 128.94 475.001 128.94 475.561C128.94 476.334 128.766 477.074 128.42 477.781C128.073 478.474 127.586 479.041 126.96 479.481C126.333 479.907 125.6 480.121 124.76 480.121H120.52V485.221H118.72ZM120.52 478.521H124.66C125.153 478.521 125.58 478.387 125.94 478.121C126.313 477.854 126.6 477.494 126.8 477.041C127.013 476.587 127.12 476.094 127.12 475.561C127.12 475.001 127 474.501 126.76 474.061C126.52 473.607 126.206 473.254 125.82 473.001C125.433 472.747 125.006 472.621 124.54 472.621H120.52V478.521ZM131.18 485.221V471.021H137.26C137.887 471.021 138.46 471.154 138.98 471.421C139.5 471.674 139.954 472.021 140.34 472.461C140.727 472.887 141.027 473.374 141.24 473.921C141.454 474.454 141.56 475.001 141.56 475.561C141.56 476.214 141.434 476.834 141.18 477.421C140.94 478.007 140.594 478.507 140.14 478.921C139.7 479.334 139.18 479.621 138.58 479.781L142.02 485.221H139.98L136.74 480.121H132.98V485.221H131.18ZM132.98 478.521H137.28C137.774 478.521 138.2 478.387 138.56 478.121C138.934 477.841 139.22 477.474 139.42 477.021C139.634 476.567 139.74 476.081 139.74 475.561C139.74 475.027 139.62 474.541 139.38 474.101C139.14 473.647 138.827 473.287 138.44 473.021C138.054 472.754 137.627 472.621 137.16 472.621H132.98V478.521ZM153.965 483.621V485.221H144.325V471.021H153.785V472.621H146.125V477.221H152.785V478.721H146.125V483.621H153.965ZM156.434 485.221V471.021H161.354C162.874 471.021 164.141 471.341 165.154 471.981C166.181 472.607 166.948 473.461 167.454 474.541C167.961 475.607 168.214 476.794 168.214 478.101C168.214 479.541 167.934 480.794 167.374 481.861C166.814 482.927 166.021 483.754 164.994 484.341C163.968 484.927 162.754 485.221 161.354 485.221H156.434ZM166.394 478.101C166.394 477.034 166.194 476.087 165.794 475.261C165.408 474.434 164.841 473.787 164.094 473.321C163.348 472.854 162.434 472.621 161.354 472.621H158.234V483.621H161.354C162.448 483.621 163.368 483.381 164.114 482.901C164.861 482.407 165.428 481.747 165.814 480.921C166.201 480.081 166.394 479.141 166.394 478.101ZM170.751 485.221V471.021H172.551V485.221H170.751ZM175.026 478.021C175.026 477.154 175.173 476.307 175.466 475.481C175.773 474.641 176.213 473.881 176.786 473.201C177.373 472.507 178.086 471.961 178.926 471.561C179.766 471.147 180.719 470.941 181.786 470.941C183.053 470.941 184.139 471.234 185.046 471.821C185.953 472.394 186.626 473.134 187.066 474.041L185.646 474.961C185.366 474.361 185.006 473.887 184.566 473.541C184.139 473.181 183.673 472.927 183.166 472.781C182.673 472.634 182.186 472.561 181.706 472.561C180.919 472.561 180.219 472.721 179.606 473.041C179.006 473.361 178.499 473.787 178.086 474.321C177.673 474.854 177.359 475.454 177.146 476.121C176.946 476.774 176.846 477.434 176.846 478.101C176.846 478.834 176.966 479.541 177.206 480.221C177.459 480.901 177.806 481.501 178.246 482.021C178.686 482.541 179.206 482.954 179.806 483.261C180.406 483.567 181.059 483.721 181.766 483.721C182.259 483.721 182.766 483.634 183.286 483.461C183.806 483.287 184.293 483.021 184.746 482.661C185.199 482.287 185.559 481.807 185.826 481.221L187.326 482.041C187.033 482.747 186.579 483.347 185.966 483.841C185.353 484.334 184.666 484.707 183.906 484.961C183.159 485.214 182.419 485.341 181.686 485.341C180.713 485.341 179.819 485.134 179.006 484.721C178.193 484.294 177.486 483.734 176.886 483.041C176.299 482.334 175.839 481.547 175.506 480.681C175.186 479.801 175.026 478.914 175.026 478.021ZM199.819 472.621H194.919V485.221H193.119V472.621H188.219V471.021H199.819V472.621ZM201.864 485.221V471.021H203.664V485.221H201.864ZM212.819 485.321C211.819 485.321 210.913 485.121 210.099 484.721C209.286 484.321 208.579 483.781 207.979 483.101C207.393 482.407 206.939 481.634 206.619 480.781C206.299 479.914 206.139 479.027 206.139 478.121C206.139 477.174 206.306 476.274 206.639 475.421C206.986 474.554 207.459 473.787 208.059 473.121C208.673 472.441 209.386 471.907 210.199 471.521C211.013 471.121 211.899 470.921 212.859 470.921C213.859 470.921 214.766 471.127 215.579 471.541C216.393 471.954 217.093 472.507 217.679 473.201C218.266 473.894 218.719 474.667 219.039 475.521C219.359 476.374 219.519 477.247 219.519 478.141C219.519 479.087 219.353 479.994 219.019 480.861C218.686 481.714 218.213 482.481 217.599 483.161C216.999 483.827 216.293 484.354 215.479 484.741C214.666 485.127 213.779 485.321 212.819 485.321ZM207.959 478.121C207.959 478.841 208.073 479.541 208.299 480.221C208.539 480.887 208.873 481.481 209.299 482.001C209.726 482.521 210.239 482.934 210.839 483.241C211.439 483.547 212.106 483.701 212.839 483.701C213.599 483.701 214.279 483.541 214.879 483.221C215.479 482.901 215.986 482.474 216.399 481.941C216.826 481.407 217.146 480.807 217.359 480.141C217.586 479.474 217.699 478.801 217.699 478.121C217.699 477.401 217.579 476.707 217.339 476.041C217.113 475.374 216.779 474.781 216.339 474.261C215.913 473.727 215.399 473.314 214.799 473.021C214.213 472.714 213.559 472.561 212.839 472.561C212.079 472.561 211.399 472.721 210.799 473.041C210.199 473.347 209.686 473.767 209.259 474.301C208.846 474.834 208.526 475.434 208.299 476.101C208.073 476.754 207.959 477.427 207.959 478.121ZM223.82 474.341V485.221H222.02V471.021H223.54L232.22 482.121V471.041H234.02V485.221H232.38L223.82 474.341ZM245.751 474.001C245.591 473.814 245.378 473.634 245.111 473.461C244.844 473.287 244.544 473.134 244.211 473.001C243.878 472.854 243.511 472.741 243.111 472.661C242.724 472.567 242.318 472.521 241.891 472.521C240.798 472.521 239.991 472.727 239.471 473.141C238.951 473.554 238.691 474.121 238.691 474.841C238.691 475.347 238.824 475.747 239.091 476.041C239.358 476.334 239.764 476.574 240.311 476.761C240.871 476.947 241.578 477.141 242.431 477.341C243.418 477.554 244.271 477.814 244.991 478.121C245.711 478.427 246.264 478.841 246.651 479.361C247.038 479.867 247.231 480.547 247.231 481.401C247.231 482.081 247.098 482.674 246.831 483.181C246.578 483.674 246.218 484.087 245.751 484.421C245.284 484.741 244.738 484.981 244.111 485.141C243.484 485.287 242.804 485.361 242.071 485.361C241.351 485.361 240.644 485.287 239.951 485.141C239.271 484.981 238.624 484.754 238.011 484.461C237.398 484.167 236.824 483.801 236.291 483.361L237.151 481.841C237.364 482.067 237.638 482.294 237.971 482.521C238.318 482.734 238.704 482.934 239.131 483.121C239.571 483.307 240.044 483.461 240.551 483.581C241.058 483.687 241.578 483.741 242.111 483.741C243.124 483.741 243.911 483.561 244.471 483.201C245.031 482.827 245.311 482.287 245.311 481.581C245.311 481.047 245.151 480.621 244.831 480.301C244.524 479.981 244.064 479.714 243.451 479.501C242.838 479.287 242.091 479.074 241.211 478.861C240.251 478.621 239.444 478.361 238.791 478.081C238.138 477.787 237.644 477.407 237.311 476.941C236.991 476.474 236.831 475.867 236.831 475.121C236.831 474.214 237.051 473.447 237.491 472.821C237.931 472.194 238.538 471.721 239.311 471.401C240.084 471.081 240.958 470.921 241.931 470.921C242.571 470.921 243.164 470.987 243.711 471.121C244.271 471.254 244.791 471.441 245.271 471.681C245.751 471.921 246.191 472.207 246.591 472.541L245.751 474.001ZM260.417 485.321C259.417 485.321 258.51 485.121 257.697 484.721C256.884 484.321 256.177 483.781 255.577 483.101C254.99 482.407 254.537 481.634 254.217 480.781C253.897 479.914 253.737 479.027 253.737 478.121C253.737 477.174 253.904 476.274 254.237 475.421C254.584 474.554 255.057 473.787 255.657 473.121C256.27 472.441 256.984 471.907 257.797 471.521C258.61 471.121 259.497 470.921 260.457 470.921C261.457 470.921 262.364 471.127 263.177 471.541C263.99 471.954 264.69 472.507 265.277 473.201C265.864 473.894 266.317 474.667 266.637 475.521C266.957 476.374 267.117 477.247 267.117 478.141C267.117 479.087 266.95 479.994 266.617 480.861C266.284 481.714 265.81 482.481 265.197 483.161C264.597 483.827 263.89 484.354 263.077 484.741C262.264 485.127 261.377 485.321 260.417 485.321ZM255.557 478.121C255.557 478.841 255.67 479.541 255.897 480.221C256.137 480.887 256.47 481.481 256.897 482.001C257.324 482.521 257.837 482.934 258.437 483.241C259.037 483.547 259.704 483.701 260.437 483.701C261.197 483.701 261.877 483.541 262.477 483.221C263.077 482.901 263.584 482.474 263.997 481.941C264.424 481.407 264.744 480.807 264.957 480.141C265.184 479.474 265.297 478.801 265.297 478.121C265.297 477.401 265.177 476.707 264.937 476.041C264.71 475.374 264.377 474.781 263.937 474.261C263.51 473.727 262.997 473.314 262.397 473.021C261.81 472.714 261.157 472.561 260.437 472.561C259.677 472.561 258.997 472.721 258.397 473.041C257.797 473.347 257.284 473.767 256.857 474.301C256.444 474.834 256.124 475.434 255.897 476.101C255.67 476.754 255.557 477.427 255.557 478.121ZM271.418 474.341V485.221H269.618V471.021H271.138L279.818 482.121V471.041H281.618V485.221H279.978L271.418 474.341ZM299.702 472.621H294.802V485.221H293.002V472.621H288.102V471.021H299.702V472.621ZM313.167 471.021V485.221H311.367V478.761H303.547V485.221H301.747V471.021H303.547V477.161H311.367V471.021H313.167ZM326.211 483.621V485.221H316.571V471.021H326.031V472.621H318.371V477.221H325.031V478.721H318.371V483.621H326.211ZM126.352 495.621H121.452V508.221H119.652V495.621H114.752V494.021H126.352V495.621ZM138.037 506.621V508.221H128.397V494.021H137.857V495.621H130.197V500.221H136.857V501.721H130.197V506.621H138.037ZM148.847 497.001C148.687 496.814 148.473 496.634 148.207 496.461C147.94 496.287 147.64 496.134 147.307 496.001C146.973 495.854 146.607 495.741 146.207 495.661C145.82 495.567 145.413 495.521 144.987 495.521C143.893 495.521 143.087 495.727 142.567 496.141C142.047 496.554 141.787 497.121 141.787 497.841C141.787 498.347 141.92 498.747 142.187 499.041C142.453 499.334 142.86 499.574 143.407 499.761C143.967 499.947 144.673 500.141 145.527 500.341C146.513 500.554 147.367 500.814 148.087 501.121C148.807 501.427 149.36 501.841 149.747 502.361C150.133 502.867 150.327 503.547 150.327 504.401C150.327 505.081 150.193 505.674 149.927 506.181C149.673 506.674 149.313 507.087 148.847 507.421C148.38 507.741 147.833 507.981 147.207 508.141C146.58 508.287 145.9 508.361 145.167 508.361C144.447 508.361 143.74 508.287 143.047 508.141C142.367 507.981 141.72 507.754 141.107 507.461C140.493 507.167 139.92 506.801 139.387 506.361L140.247 504.841C140.46 505.067 140.733 505.294 141.067 505.521C141.413 505.734 141.8 505.934 142.227 506.121C142.667 506.307 143.14 506.461 143.647 506.581C144.153 506.687 144.673 506.741 145.207 506.741C146.22 506.741 147.007 506.561 147.567 506.201C148.127 505.827 148.407 505.287 148.407 504.581C148.407 504.047 148.247 503.621 147.927 503.301C147.62 502.981 147.16 502.714 146.547 502.501C145.933 502.287 145.187 502.074 144.307 501.861C143.347 501.621 142.54 501.361 141.887 501.081C141.233 500.787 140.74 500.407 140.407 499.941C140.087 499.474 139.927 498.867 139.927 498.121C139.927 497.214 140.147 496.447 140.587 495.821C141.027 495.194 141.633 494.721 142.407 494.401C143.18 494.081 144.053 493.921 145.027 493.921C145.667 493.921 146.26 493.987 146.807 494.121C147.367 494.254 147.887 494.441 148.367 494.681C148.847 494.921 149.287 495.207 149.687 495.541L148.847 497.001ZM162.934 495.621H158.034V508.221H156.234V495.621H151.334V494.021H162.934V495.621ZM169.432 508.221V494.021H174.352C175.872 494.021 177.139 494.341 178.152 494.981C179.179 495.607 179.946 496.461 180.452 497.541C180.959 498.607 181.212 499.794 181.212 501.101C181.212 502.541 180.932 503.794 180.372 504.861C179.812 505.927 179.019 506.754 177.992 507.341C176.966 507.927 175.752 508.221 174.352 508.221H169.432ZM179.392 501.101C179.392 500.034 179.192 499.087 178.792 498.261C178.406 497.434 177.839 496.787 177.092 496.321C176.346 495.854 175.432 495.621 174.352 495.621H171.232V506.621H174.352C175.446 506.621 176.366 506.381 177.112 505.901C177.859 505.407 178.426 504.747 178.812 503.921C179.199 503.081 179.392 502.141 179.392 501.101ZM187.561 494.021H189.081L194.881 508.221H192.961L191.281 504.061H185.321L183.661 508.221H181.741L187.561 494.021ZM190.881 502.661L188.321 496.101L185.681 502.661H190.881ZM205.669 495.621H200.769V508.221H198.969V495.621H194.069V494.021H205.669V495.621ZM210.686 494.021H212.206L218.006 508.221H216.086L214.406 504.061H208.446L206.786 508.221H204.866L210.686 494.021ZM214.006 502.661L211.446 496.101L208.806 502.661H214.006ZM228.046 497.001C227.886 496.814 227.673 496.634 227.406 496.461C227.139 496.287 226.839 496.134 226.506 496.001C226.173 495.854 225.806 495.741 225.406 495.661C225.019 495.567 224.613 495.521 224.186 495.521C223.093 495.521 222.286 495.727 221.766 496.141C221.246 496.554 220.986 497.121 220.986 497.841C220.986 498.347 221.119 498.747 221.386 499.041C221.653 499.334 222.059 499.574 222.606 499.761C223.166 499.947 223.873 500.141 224.726 500.341C225.713 500.554 226.566 500.814 227.286 501.121C228.006 501.427 228.559 501.841 228.946 502.361C229.333 502.867 229.526 503.547 229.526 504.401C229.526 505.081 229.393 505.674 229.126 506.181C228.873 506.674 228.513 507.087 228.046 507.421C227.579 507.741 227.033 507.981 226.406 508.141C225.779 508.287 225.099 508.361 224.366 508.361C223.646 508.361 222.939 508.287 222.246 508.141C221.566 507.981 220.919 507.754 220.306 507.461C219.693 507.167 219.119 506.801 218.586 506.361L219.446 504.841C219.659 505.067 219.933 505.294 220.266 505.521C220.613 505.734 220.999 505.934 221.426 506.121C221.866 506.307 222.339 506.461 222.846 506.581C223.353 506.687 223.873 506.741 224.406 506.741C225.419 506.741 226.206 506.561 226.766 506.201C227.326 505.827 227.606 505.287 227.606 504.581C227.606 504.047 227.446 503.621 227.126 503.301C226.819 502.981 226.359 502.714 225.746 502.501C225.133 502.287 224.386 502.074 223.506 501.861C222.546 501.621 221.739 501.361 221.086 501.081C220.433 500.787 219.939 500.407 219.606 499.941C219.286 499.474 219.126 498.867 219.126 498.121C219.126 497.214 219.346 496.447 219.786 495.821C220.226 495.194 220.833 494.721 221.606 494.401C222.379 494.081 223.253 493.921 224.226 493.921C224.866 493.921 225.459 493.987 226.006 494.121C226.566 494.254 227.086 494.441 227.566 494.681C228.046 494.921 228.486 495.207 228.886 495.541L228.046 497.001ZM241.533 506.621V508.221H231.893V494.021H241.353V495.621H233.693V500.221H240.353V501.721H233.693V506.621H241.533ZM254.243 495.621H249.343V508.221H247.543V495.621H242.643V494.021H254.243V495.621Z" fill="#0B1B23"/>
<path d="M189 239.406C189 238.578 188.328 237.906 187.5 237.906C186.672 237.906 186 238.578 186 239.406L189 239.406ZM186.439 284.874C187.025 285.46 187.975 285.46 188.561 284.874L198.107 275.328C198.692 274.742 198.692 273.792 198.107 273.207C197.521 272.621 196.571 272.621 195.985 273.207L187.5 281.692L179.015 273.207C178.429 272.621 177.479 272.621 176.893 273.207C176.308 273.792 176.308 274.742 176.893 275.328L186.439 284.874ZM186 239.406L186 283.813L189 283.813L189 239.406L186 239.406Z" fill="#F5F5F5"/>
<rect y="288.814" width="375" height="90" rx="10" fill="#F5F5F5"/>
<path d="M39.0465 314.694H40.7465L42.6265 319.634L44.5265 314.694H46.2265L43.7665 320.874L46.2065 326.734L51.0065 314.614H52.9665L47.0265 328.814H45.4665L42.6465 322.114L39.8065 328.814H38.2465L32.3265 314.614H34.2665L39.0865 326.734L41.5065 320.874L39.0465 314.694ZM57.9712 314.614H59.4912L65.2912 328.814H63.3712L61.6912 324.654H55.7312L54.0712 328.814H52.1512L57.9712 314.614ZM61.2912 323.254L58.7312 316.694L56.0912 323.254H61.2912ZM67.1863 328.814V314.614H68.9863V328.814H67.1863ZM82.6216 316.214H77.7216V328.814H75.9216V316.214H71.0216V314.614H82.6216V316.214ZM89.1199 328.814V314.614H98.4999V316.214H90.9199V320.954H97.2999V322.454H90.9199V328.814H89.1199ZM106.286 328.914C105.286 328.914 104.38 328.714 103.566 328.314C102.753 327.914 102.046 327.374 101.446 326.694C100.86 326.001 100.406 325.228 100.086 324.374C99.7662 323.508 99.6062 322.621 99.6062 321.714C99.6062 320.768 99.7728 319.868 100.106 319.014C100.453 318.148 100.926 317.381 101.526 316.714C102.14 316.034 102.853 315.501 103.666 315.114C104.48 314.714 105.366 314.514 106.326 314.514C107.326 314.514 108.233 314.721 109.046 315.134C109.86 315.548 110.56 316.101 111.146 316.794C111.733 317.488 112.186 318.261 112.506 319.114C112.826 319.968 112.986 320.841 112.986 321.734C112.986 322.681 112.82 323.588 112.486 324.454C112.153 325.308 111.68 326.074 111.066 326.754C110.466 327.421 109.76 327.948 108.946 328.334C108.133 328.721 107.246 328.914 106.286 328.914ZM101.426 321.714C101.426 322.434 101.54 323.134 101.766 323.814C102.006 324.481 102.34 325.074 102.766 325.594C103.193 326.114 103.706 326.528 104.306 326.834C104.906 327.141 105.573 327.294 106.306 327.294C107.066 327.294 107.746 327.134 108.346 326.814C108.946 326.494 109.453 326.068 109.866 325.534C110.293 325.001 110.613 324.401 110.826 323.734C111.053 323.068 111.166 322.394 111.166 321.714C111.166 320.994 111.046 320.301 110.806 319.634C110.58 318.968 110.246 318.374 109.806 317.854C109.38 317.321 108.866 316.908 108.266 316.614C107.68 316.308 107.026 316.154 106.306 316.154C105.546 316.154 104.866 316.314 104.266 316.634C103.666 316.941 103.153 317.361 102.726 317.894C102.313 318.428 101.993 319.028 101.766 319.694C101.54 320.348 101.426 321.021 101.426 321.714ZM115.487 328.814V314.614H121.567C122.194 314.614 122.767 314.748 123.287 315.014C123.807 315.268 124.26 315.614 124.647 316.054C125.034 316.481 125.334 316.968 125.547 317.514C125.76 318.048 125.867 318.594 125.867 319.154C125.867 319.808 125.74 320.428 125.487 321.014C125.247 321.601 124.9 322.101 124.447 322.514C124.007 322.928 123.487 323.214 122.887 323.374L126.327 328.814H124.287L121.047 323.714H117.287V328.814H115.487ZM117.287 322.114H121.587C122.08 322.114 122.507 321.981 122.867 321.714C123.24 321.434 123.527 321.068 123.727 320.614C123.94 320.161 124.047 319.674 124.047 319.154C124.047 318.621 123.927 318.134 123.687 317.694C123.447 317.241 123.134 316.881 122.747 316.614C122.36 316.348 121.934 316.214 121.467 316.214H117.287V322.114ZM143.325 316.214H138.425V328.814H136.625V316.214H131.725V314.614H143.325V316.214ZM156.79 314.614V328.814H154.99V322.354H147.17V328.814H145.37V314.614H147.17V320.754H154.99V314.614H156.79ZM169.834 327.214V328.814H160.194V314.614H169.654V316.214H161.994V320.814H168.654V322.314H161.994V327.214H169.834ZM176.442 321.614C176.442 320.748 176.589 319.901 176.882 319.074C177.189 318.234 177.629 317.474 178.202 316.794C178.789 316.101 179.502 315.554 180.342 315.154C181.182 314.741 182.135 314.534 183.202 314.534C184.469 314.534 185.555 314.828 186.462 315.414C187.369 315.988 188.042 316.728 188.482 317.634L187.062 318.554C186.782 317.954 186.422 317.481 185.982 317.134C185.555 316.774 185.089 316.521 184.582 316.374C184.089 316.228 183.602 316.154 183.122 316.154C182.335 316.154 181.635 316.314 181.022 316.634C180.422 316.954 179.915 317.381 179.502 317.914C179.089 318.448 178.775 319.048 178.562 319.714C178.362 320.368 178.262 321.028 178.262 321.694C178.262 322.428 178.382 323.134 178.622 323.814C178.875 324.494 179.222 325.094 179.662 325.614C180.102 326.134 180.622 326.548 181.222 326.854C181.822 327.161 182.475 327.314 183.182 327.314C183.675 327.314 184.182 327.228 184.702 327.054C185.222 326.881 185.709 326.614 186.162 326.254C186.615 325.881 186.975 325.401 187.242 324.814L188.742 325.634C188.449 326.341 187.995 326.941 187.382 327.434C186.769 327.928 186.082 328.301 185.322 328.554C184.575 328.808 183.835 328.934 183.102 328.934C182.129 328.934 181.235 328.728 180.422 328.314C179.609 327.888 178.902 327.328 178.302 326.634C177.715 325.928 177.255 325.141 176.922 324.274C176.602 323.394 176.442 322.508 176.442 321.614ZM196.599 328.914C195.599 328.914 194.692 328.714 193.879 328.314C193.065 327.914 192.359 327.374 191.759 326.694C191.172 326.001 190.719 325.228 190.399 324.374C190.079 323.508 189.919 322.621 189.919 321.714C189.919 320.768 190.085 319.868 190.419 319.014C190.765 318.148 191.239 317.381 191.839 316.714C192.452 316.034 193.165 315.501 193.979 315.114C194.792 314.714 195.679 314.514 196.639 314.514C197.639 314.514 198.545 314.721 199.359 315.134C200.172 315.548 200.872 316.101 201.459 316.794C202.045 317.488 202.499 318.261 202.819 319.114C203.139 319.968 203.299 320.841 203.299 321.734C203.299 322.681 203.132 323.588 202.799 324.454C202.465 325.308 201.992 326.074 201.379 326.754C200.779 327.421 200.072 327.948 199.259 328.334C198.445 328.721 197.559 328.914 196.599 328.914ZM191.739 321.714C191.739 322.434 191.852 323.134 192.079 323.814C192.319 324.481 192.652 325.074 193.079 325.594C193.505 326.114 194.019 326.528 194.619 326.834C195.219 327.141 195.885 327.294 196.619 327.294C197.379 327.294 198.059 327.134 198.659 326.814C199.259 326.494 199.765 326.068 200.179 325.534C200.605 325.001 200.925 324.401 201.139 323.734C201.365 323.068 201.479 322.394 201.479 321.714C201.479 320.994 201.359 320.301 201.119 319.634C200.892 318.968 200.559 318.374 200.119 317.854C199.692 317.321 199.179 316.908 198.579 316.614C197.992 316.308 197.339 316.154 196.619 316.154C195.859 316.154 195.179 316.314 194.579 316.634C193.979 316.941 193.465 317.361 193.039 317.894C192.625 318.428 192.305 319.028 192.079 319.694C191.852 320.348 191.739 321.021 191.739 321.714ZM218.08 328.814V317.974L213.4 326.314H212.3L207.6 317.974V328.814H205.8V314.614H207.7L212.84 323.834L218 314.614H219.88V328.814H218.08ZM223.28 328.814V314.614H229.2C229.827 314.614 230.4 314.748 230.92 315.014C231.44 315.268 231.893 315.614 232.28 316.054C232.667 316.481 232.967 316.968 233.18 317.514C233.393 318.048 233.5 318.594 233.5 319.154C233.5 319.928 233.327 320.668 232.98 321.374C232.633 322.068 232.147 322.634 231.52 323.074C230.893 323.501 230.16 323.714 229.32 323.714H225.08V328.814H223.28ZM225.08 322.114H229.22C229.713 322.114 230.14 321.981 230.5 321.714C230.873 321.448 231.16 321.088 231.36 320.634C231.573 320.181 231.68 319.688 231.68 319.154C231.68 318.594 231.56 318.094 231.32 317.654C231.08 317.201 230.767 316.848 230.38 316.594C229.993 316.341 229.567 316.214 229.1 316.214H225.08V322.114ZM235.741 328.814V314.614H237.541V327.214H245.461V328.814H235.741ZM257.061 327.214V328.814H247.421V314.614H256.881V316.214H249.221V320.814H255.881V322.314H249.221V327.214H257.061ZM269.77 316.214H264.87V328.814H263.07V316.214H258.17V314.614H269.77V316.214ZM271.815 328.814V314.614H273.615V328.814H271.815ZM282.771 328.914C281.771 328.914 280.864 328.714 280.051 328.314C279.237 327.914 278.531 327.374 277.931 326.694C277.344 326.001 276.891 325.228 276.571 324.374C276.251 323.508 276.091 322.621 276.091 321.714C276.091 320.768 276.257 319.868 276.591 319.014C276.937 318.148 277.411 317.381 278.011 316.714C278.624 316.034 279.337 315.501 280.151 315.114C280.964 314.714 281.851 314.514 282.811 314.514C283.811 314.514 284.717 314.721 285.531 315.134C286.344 315.548 287.044 316.101 287.631 316.794C288.217 317.488 288.671 318.261 288.991 319.114C289.311 319.968 289.471 320.841 289.471 321.734C289.471 322.681 289.304 323.588 288.971 324.454C288.637 325.308 288.164 326.074 287.551 326.754C286.951 327.421 286.244 327.948 285.431 328.334C284.617 328.721 283.731 328.914 282.771 328.914ZM277.911 321.714C277.911 322.434 278.024 323.134 278.251 323.814C278.491 324.481 278.824 325.074 279.251 325.594C279.677 326.114 280.191 326.528 280.791 326.834C281.391 327.141 282.057 327.294 282.791 327.294C283.551 327.294 284.231 327.134 284.831 326.814C285.431 326.494 285.937 326.068 286.351 325.534C286.777 325.001 287.097 324.401 287.311 323.734C287.537 323.068 287.651 322.394 287.651 321.714C287.651 320.994 287.531 320.301 287.291 319.634C287.064 318.968 286.731 318.374 286.291 317.854C285.864 317.321 285.351 316.908 284.751 316.614C284.164 316.308 283.511 316.154 282.791 316.154C282.031 316.154 281.351 316.314 280.751 316.634C280.151 316.941 279.637 317.361 279.211 317.894C278.797 318.428 278.477 319.028 278.251 319.694C278.024 320.348 277.911 321.021 277.911 321.714ZM293.771 317.934V328.814H291.971V314.614H293.491L302.171 325.714V314.634H303.971V328.814H302.331L293.771 317.934ZM318.181 328.914C317.181 328.914 316.274 328.714 315.461 328.314C314.647 327.914 313.941 327.374 313.341 326.694C312.754 326.001 312.301 325.228 311.981 324.374C311.661 323.508 311.501 322.621 311.501 321.714C311.501 320.768 311.667 319.868 312.001 319.014C312.347 318.148 312.821 317.381 313.421 316.714C314.034 316.034 314.747 315.501 315.561 315.114C316.374 314.714 317.261 314.514 318.221 314.514C319.221 314.514 320.127 314.721 320.941 315.134C321.754 315.548 322.454 316.101 323.041 316.794C323.627 317.488 324.081 318.261 324.401 319.114C324.721 319.968 324.881 320.841 324.881 321.734C324.881 322.681 324.714 323.588 324.381 324.454C324.047 325.308 323.574 326.074 322.961 326.754C322.361 327.421 321.654 327.948 320.841 328.334C320.027 328.721 319.141 328.914 318.181 328.914ZM313.321 321.714C313.321 322.434 313.434 323.134 313.661 323.814C313.901 324.481 314.234 325.074 314.661 325.594C315.087 326.114 315.601 326.528 316.201 326.834C316.801 327.141 317.467 327.294 318.201 327.294C318.961 327.294 319.641 327.134 320.241 326.814C320.841 326.494 321.347 326.068 321.761 325.534C322.187 325.001 322.507 324.401 322.721 323.734C322.947 323.068 323.061 322.394 323.061 321.714C323.061 320.994 322.941 320.301 322.701 319.634C322.474 318.968 322.141 318.374 321.701 317.854C321.274 317.321 320.761 316.908 320.161 316.614C319.574 316.308 318.921 316.154 318.201 316.154C317.441 316.154 316.761 316.314 316.161 316.634C315.561 316.941 315.047 317.361 314.621 317.894C314.207 318.428 313.887 319.028 313.661 319.694C313.434 320.348 313.321 321.021 313.321 321.714ZM327.382 328.814V314.614H336.762V316.214H329.182V320.954H335.562V322.454H329.182V328.814H327.382ZM149.848 339.214H144.948V351.814H143.148V339.214H138.248V337.614H149.848V339.214ZM163.313 337.614V351.814H161.513V345.354H153.693V351.814H151.893V337.614H153.693V343.754H161.513V337.614H163.313ZM176.358 350.214V351.814H166.718V337.614H176.178V339.214H168.518V343.814H175.178V345.314H168.518V350.214H176.358ZM193.52 339.214H188.62V351.814H186.82V339.214H181.92V337.614H193.52V339.214ZM198.538 337.614H200.058L205.858 351.814H203.938L202.258 347.654H196.298L194.638 351.814H192.718L198.538 337.614ZM201.858 346.254L199.298 339.694L196.658 346.254H201.858ZM215.897 340.594C215.737 340.408 215.524 340.228 215.257 340.054C214.991 339.881 214.691 339.728 214.357 339.594C214.024 339.448 213.657 339.334 213.257 339.254C212.871 339.161 212.464 339.114 212.037 339.114C210.944 339.114 210.137 339.321 209.617 339.734C209.097 340.148 208.837 340.714 208.837 341.434C208.837 341.941 208.971 342.341 209.237 342.634C209.504 342.928 209.911 343.168 210.457 343.354C211.017 343.541 211.724 343.734 212.577 343.934C213.564 344.148 214.417 344.408 215.137 344.714C215.857 345.021 216.411 345.434 216.797 345.954C217.184 346.461 217.377 347.141 217.377 347.994C217.377 348.674 217.244 349.268 216.977 349.774C216.724 350.268 216.364 350.681 215.897 351.014C215.431 351.334 214.884 351.574 214.257 351.734C213.631 351.881 212.951 351.954 212.217 351.954C211.497 351.954 210.791 351.881 210.097 351.734C209.417 351.574 208.771 351.348 208.157 351.054C207.544 350.761 206.971 350.394 206.437 349.954L207.297 348.434C207.511 348.661 207.784 348.888 208.117 349.114C208.464 349.328 208.851 349.528 209.277 349.714C209.717 349.901 210.191 350.054 210.697 350.174C211.204 350.281 211.724 350.334 212.257 350.334C213.271 350.334 214.057 350.154 214.617 349.794C215.177 349.421 215.457 348.881 215.457 348.174C215.457 347.641 215.297 347.214 214.977 346.894C214.671 346.574 214.211 346.308 213.597 346.094C212.984 345.881 212.237 345.668 211.357 345.454C210.397 345.214 209.591 344.954 208.937 344.674C208.284 344.381 207.791 344.001 207.457 343.534C207.137 343.068 206.977 342.461 206.977 341.714C206.977 340.808 207.197 340.041 207.637 339.414C208.077 338.788 208.684 338.314 209.457 337.994C210.231 337.674 211.104 337.514 212.077 337.514C212.717 337.514 213.311 337.581 213.857 337.714C214.417 337.848 214.937 338.034 215.417 338.274C215.897 338.514 216.337 338.801 216.737 339.134L215.897 340.594ZM219.745 351.814V337.634H221.545V345.474L228.865 337.614H230.805L225.105 343.874L231.125 351.814H229.105L223.965 344.954L221.545 347.474V351.814H219.745Z" fill="#0B1B23"/>
<path d="M189 383.814C189 382.986 188.328 382.314 187.5 382.314C186.672 382.314 186 382.986 186 383.814L189 383.814ZM186.439 429.282C187.025 429.868 187.975 429.868 188.561 429.282L198.107 419.736C198.692 419.15 198.692 418.201 198.107 417.615C197.521 417.029 196.571 417.029 195.985 417.615L187.5 426.1L179.015 417.615C178.429 417.029 177.479 417.029 176.893 417.615C176.308 418.201 176.308 419.15 176.893 419.736L186.439 429.282ZM186 383.814L186 428.221L189 428.221L189 383.814L186 383.814Z" fill="#F5F5F5"/>
</svg>
